<?xml version="1.0" encoding="UTF-8" standalone="no"?>
<svg
   xmlns:dc="http://purl.org/dc/elements/1.1/"
   xmlns:cc="http://creativecommons.org/ns#"
   xmlns:rdf="http://www.w3.org/1999/02/22-rdf-syntax-ns#"
   xmlns:svg="http://www.w3.org/2000/svg"
   xmlns="http://www.w3.org/2000/svg"
   xmlns:sodipodi="http://sodipodi.sourceforge.net/DTD/sodipodi-0.dtd"
   xmlns:inkscape="http://www.inkscape.org/namespaces/inkscape"
   width="1926.978"
   height="791"
   viewBox="0 0 1926.978 791"
   version="1.1"
   id="svg3815"
   sodipodi:docname="Grupo_50.svg"
   inkscape:version="0.92.5 (2060ec1f9f, 2020-04-08)">
  <metadata
     id="metadata3819">
    <rdf:RDF>
      <cc:Work
         rdf:about="">
        <dc:format>image/svg+xml</dc:format>
        <dc:type
           rdf:resource="http://purl.org/dc/dcmitype/StillImage" />
        <dc:title></dc:title>
      </cc:Work>
    </rdf:RDF>
  </metadata>
  <sodipodi:namedview
     pagecolor="#ffffff"
     bordercolor="#666666"
     borderopacity="1"
     objecttolerance="10"
     gridtolerance="10"
     guidetolerance="10"
     inkscape:pageopacity="0"
     inkscape:pageshadow="2"
     inkscape:window-width="1366"
     inkscape:window-height="731"
     id="namedview3817"
     showgrid="false"
     inkscape:zoom="0.48328309"
     inkscape:cx="1431.9465"
     inkscape:cy="455.14374"
     inkscape:window-x="1920"
     inkscape:window-y="114"
     inkscape:window-maximized="1"
     inkscape:current-layer="svg3815"
     fit-margin-top="0"
     fit-margin-left="0"
     fit-margin-right="-525"
     fit-margin-bottom="0" />
  <defs
     id="defs3801">
    <style
       id="style3794">.a{fill:url(#a);}.b{opacity:0.08;}.c{fill:#fff;}</style>
    <linearGradient
       id="a"
       x1="618.10437"
       x2="618.10437"
       y2="1236.2087"
       gradientUnits="userSpaceOnUse"
       gradientTransform="scale(1.5628429,0.63985959)"
       y1="0">
      <stop
         offset="0"
         stop-color="#000107"
         id="stop3796" />
      <stop
         offset="1"
         stop-color="#010c16"
         id="stop3798" />
    </linearGradient>
  </defs>
  <g
     transform="translate(12,-975)"
     id="g3813">
    <rect
       class="a"
       width="1932"
       height="791"
       transform="translate(-12,975)"
       id="rect3803"
       x="0"
       y="0"
       style="fill:url(#a)" />
    <g
       class="b"
       transform="translate(1838.948,998.418)"
       id="g3811"
       style="opacity:0.07999998">
      <path
         class="c"
         d="M 253.4,789.582 C 61.724,789.582 -94.219,633.628 -94.219,441.937 -94.219,250.246 61.721,94.3 253.4,94.3 c 191.679,0 347.63,155.95 347.63,347.637 0,191.687 -155.95,347.645 -347.63,347.645 z m 0,-692.657 c -190.235,0 -345,154.77 -345,345.012 0,190.242 154.765,345.02 345,345.02 190.235,0 345.009,-154.774 345.009,-345.02 C 598.409,251.691 443.636,96.925 253.4,96.925 Z m 0.026,643.612 H 253.4 c -164.653,0 -298.606,-133.95 -298.606,-298.6 0,-164.65 133.954,-298.6 298.606,-298.6 164.652,0 298.618,133.95 298.618,298.6 0,79.618 -31.1,154.566 -87.57,211.036 -56.47,56.47 -131.411,87.563 -211.025,87.563 z M 253.4,145.967 c -163.2,0 -295.982,132.773 -295.982,295.971 0,163.198 132.774,295.974 295.982,295.974 h 0.026 c 78.92,0 153.2,-30.821 209.165,-86.791 55.965,-55.97 86.8,-130.267 86.8,-209.184 C 549.39,278.74 416.609,145.967 253.4,145.967 Z"
         transform="translate(0,-70)"
         id="path3805"
         inkscape:connector-curvature="0"
         style="fill:#ffffff" />
      <path
         class="c"
         d="m 185.989,629.864 c -140.807,0 -255.36,-114.552 -255.36,-255.356 0,-140.804 114.553,-255.345 255.36,-255.349 140.807,-0.004 255.356,114.549 255.356,255.349 0,140.8 -114.553,255.356 -255.356,255.356 z m 0,-508.08 c -139.359,0 -252.735,113.372 -252.735,252.724 0,139.352 113.375,252.731 252.735,252.731 139.36,0 252.731,-113.376 252.731,-252.731 0,-139.355 -113.372,-252.724 -252.731,-252.724 z m 0,459.038 c -113.769,0 -206.329,-92.553 -206.329,-206.314 0,-113.761 92.56,-206.333 206.329,-206.333 113.769,0 206.311,92.56 206.311,206.333 0,113.773 -92.55,206.314 -206.311,206.314 z m 0,-410.022 c -112.321,0 -203.7,91.383 -203.7,203.708 0,112.325 91.378,203.692 203.7,203.692 112.322,0 203.689,-91.375 203.689,-203.689 0,-112.314 -91.372,-203.711 -203.689,-203.711 z"
         transform="translate(67.408,-2.57)"
         id="path3807"
         inkscape:connector-curvature="0"
         style="fill:#ffffff" />
      <path
         class="c"
         d="m 111.406,453.206 c -84.518,0 -153.281,-68.766 -153.281,-153.292 0,-84.5 68.763,-153.255 153.281,-153.255 84.518,0 153.307,68.752 153.307,153.255 0,84.526 -68.773,153.292 -153.307,153.292 z m 0,-303.923 c -83.071,0 -150.656,67.571 -150.656,150.63 0,83.078 67.586,150.664 150.656,150.664 83.07,0 150.682,-67.586 150.682,-150.664 10e-4,-83.058 -67.596,-150.629 -150.682,-150.629 z m 0,254.892 A 104.25,104.25 0 1 1 215.642,299.914 104.367,104.367 0 0 1 111.406,404.176 Z m 0,-205.876 A 101.626,101.626 0 1 0 213.017,299.914 101.726,101.726 0 0 0 111.406,198.3 Z"
         transform="translate(141.991,72.023)"
         id="path3809"
         inkscape:connector-curvature="0"
         style="fill:#ffffff" />
    </g>
  </g>
</svg>
