<?xml version="1.0" standalone="no"?>
<!DOCTYPE svg PUBLIC "-//W3C//DTD SVG 20010904//EN" "http://www.w3.org/TR/2001/REC-SVG-20010904/DTD/svg10.dtd">
<!-- Created using Karbon, part of Calligra: http://www.calligra.org/karbon -->
<svg xmlns="http://www.w3.org/2000/svg" xmlns:xlink="http://www.w3.org/1999/xlink" width="1541.58pt" height="632.8pt">
<defs>
  <linearGradient id="gradient0" gradientTransform="matrix(1.56284 0 0 0.63986 0 0)" gradientUnits="objectBoundingBox" x1="0.31992979814" y1="0.00000000000" x2="0.31992979814" y2="1.56284285714" spreadMethod="pad">
   <stop stop-color="#000107" offset="0.00000000000" stop-opacity="1.00000000000"/>
   <stop stop-color="#010c16" offset="1.00000000000" stop-opacity="1.00000000000"/>
  </linearGradient>
 </defs>
<g id="g3813">
  <rect id="rect3803" transform="translate(-2.65241, 0)" fill="url(#gradient0)" width="1549.84385504749pt" height="632.80000000000pt"/>
  <g id="g3811" transform="translate(-176.185, 582.717)" fill="none" opacity="0.07999998000">
   <path id="path3805" transform="translate(0.625, 0.625)" fill="#ffffff" d="M197.186 394.397C88.4582 394.397 0 305.932 0 197.196C0 88.4599 88.4565 0 197.186 0C305.915 0 394.378 88.4622 394.378 197.196C394.378 305.93 305.916 394.397 197.186 394.397ZM197.186 1.48902C89.2756 1.48902 1.48562 89.2818 1.48562 197.196C1.48562 305.11 89.2756 392.908 197.186 392.908C305.096 392.908 392.891 305.113 392.891 197.196C392.891 89.2796 305.097 1.48902 197.186 1.48902ZM197.201 366.576L197.186 366.576C103.787 366.576 27.8025 290.593 27.8025 197.196C27.8025 103.799 103.787 27.8161 197.186 27.8161C290.584 27.8161 366.576 103.799 366.576 197.196C366.576 242.359 348.935 284.873 316.902 316.906C284.87 348.938 242.36 366.575 197.199 366.575ZM197.186 29.308C104.611 29.308 29.2909 104.623 29.2909 197.197C29.2909 289.77 104.607 365.087 197.186 365.087L197.201 365.087C241.968 365.087 284.103 347.604 315.849 315.855C347.595 284.106 365.086 241.961 365.086 197.196C365.085 104.623 289.766 29.308 197.186 29.308Z"/>
   <path id="path3807" transform="translate(52.955, 52.976)" fill="#ffffff" d="M144.852 289.696C64.9798 289.696 0 224.717 0 144.846C0 64.9753 64.9798 0.00226905 144.852 5.94202e-08C224.725 -0.00226893 289.702 64.9776 289.702 144.846C289.702 224.714 224.722 289.696 144.852 289.696ZM144.852 1.48902C65.8012 1.48902 1.48902 65.799 1.48902 144.846C1.48902 223.893 65.8007 288.207 144.852 288.207C223.904 288.207 288.213 223.895 288.213 144.846C288.213 65.7973 223.903 1.48902 144.852 1.48902ZM144.852 261.877C80.3171 261.877 27.8127 209.377 27.8127 144.846C27.8127 80.3154 80.3171 27.8042 144.852 27.8042C209.387 27.8042 261.881 80.3086 261.881 144.846C261.881 209.383 209.383 261.877 144.852 261.877ZM144.852 29.2932C81.1384 29.2932 29.304 81.1299 29.304 144.846C29.304 208.562 81.1379 260.39 144.852 260.39C208.567 260.39 260.394 208.557 260.394 144.848C260.394 81.1379 208.564 29.2932 144.852 29.2932Z"/>
   <path id="path3809" transform="translate(110.865, 110.888)" fill="#ffffff" d="M86.9482 173.888C39.0056 173.888 0 134.881 0 86.9334C0 39.0011 39.0056 0 86.9482 0C134.891 0 173.911 38.9994 173.911 86.9334C173.911 134.881 134.9 173.888 86.9482 173.888ZM86.9482 1.48846C39.8264 1.48846 1.48902 39.8179 1.48902 86.9329C1.48902 134.059 39.827 172.397 86.9482 172.397C134.069 172.397 172.422 134.059 172.422 86.9329C172.423 39.8185 134.078 1.48902 86.9482 1.48902ZM86.9482 146.075C54.2883 146.08 27.8088 119.607 27.8047 86.9471C27.8007 54.2872 54.2736 27.8079 86.9334 27.8042C119.593 27.8004 146.072 54.2736 146.076 86.9334C146.043 119.577 119.592 146.035 86.9482 146.076ZM86.9482 29.2926C55.1087 29.2879 29.2946 55.0966 29.2926 86.9361C29.2907 118.776 55.1015 144.587 86.941 144.587C118.781 144.586 144.59 118.773 144.587 86.9334C144.552 55.1148 118.767 29.3292 86.9482 29.2932Z"/>
  </g>
 </g>
</svg>
