<svg xmlns="http://www.w3.org/2000/svg" xmlns:xlink="http://www.w3.org/1999/xlink" width="68" height="68" viewBox="0 0 68 68">
  <defs>
    <filter id="Elipse_1" x="0" y="0" width="68" height="68" filterUnits="userSpaceOnUse">
      <feOffset dy="3" input="SourceAlpha"/>
      <feGaussianBlur stdDeviation="3" result="blur"/>
      <feFlood flood-opacity="0.161"/>
      <feComposite operator="in" in2="blur"/>
      <feComposite in="SourceGraphic"/>
    </filter>
  </defs>
  <g id="Grupo_35" data-name="Grupo 35" transform="translate(577.63 377.481) rotate(180)">
    <g transform="matrix(-1, 0, 0, -1, 577.63, 377.48)" filter="url(#Elipse_1)">
      <circle id="Elipse_1-2" data-name="Elipse 1" cx="25" cy="25" r="25" transform="translate(59 56) rotate(180)" fill="#fd585d"/>
    </g>
    <path id="Caminho_75" data-name="Caminho 75" d="M.516.1a.869.869,0,0,0-.5.638.988.988,0,0,0,.311.855C3.592,4.864,6.246,7.516,8.677,9.936a1.2,1.2,0,0,0,.41.267.865.865,0,0,0,1-.3c2.568-2.571,5.236-5.239,7.931-7.93l.1-.1a2.282,2.282,0,0,0,.607-.788V.73c-.015-.037-.032-.076-.047-.118a.843.843,0,0,0-.551-.551.9.9,0,0,0-1.014.3c-1.9,1.9-3.826,3.829-5.693,5.695L9.872,7.6c-.038.038-.077.075-.124.119L9.3,8.143l-.337-.4L8.9,7.659c-.027-.034-.05-.063-.067-.08Q5.244,3.987,1.652.4L1.633.378a1.79,1.79,0,0,0-.2-.185A.913.913,0,0,0,.9,0,.862.862,0,0,0,.516.1Z" transform="translate(546.964 337.412) rotate(90)" fill="#fff"/>
  </g>
</svg>
