<svg xmlns="http://www.w3.org/2000/svg" xmlns:xlink="http://www.w3.org/1999/xlink" width="68" height="68" viewBox="0 0 68 68">
  <defs>
    <filter id="Elipse_1" x="0" y="0" width="68" height="68" filterUnits="userSpaceOnUse">
      <feOffset dy="3" input="SourceAlpha"/>
      <feGaussianBlur stdDeviation="3" result="blur"/>
      <feFlood flood-opacity="0.161"/>
      <feComposite operator="in" in2="blur"/>
      <feComposite in="SourceGraphic"/>
    </filter>
  </defs>
  <g id="Grupo_43" data-name="Grupo 43" transform="translate(9 6)">
    <g transform="matrix(1, 0, 0, 1, -9, -6)" filter="url(#Elipse_1)">
      <circle id="Elipse_1-2" data-name="Elipse 1" cx="25" cy="25" r="25" transform="translate(9 6)" fill="#fd585d"/>
    </g>
    <path id="Caminho_75" data-name="Caminho 75" d="M.516,10.165a.869.869,0,0,1-.5-.638.988.988,0,0,1,.311-.855C3.592,5.4,6.246,2.745,8.677.325a1.2,1.2,0,0,1,.41-.267.865.865,0,0,1,1,.3c2.568,2.571,5.236,5.239,7.931,7.93l.1.1a2.282,2.282,0,0,1,.607.788v.362c-.015.037-.032.076-.047.118a.843.843,0,0,1-.551.551.9.9,0,0,1-1.014-.3c-1.9-1.9-3.826-3.829-5.693-5.695L9.872,2.665c-.038-.038-.077-.075-.124-.119L9.3,2.118l-.337.4L8.9,2.6c-.027.034-.05.063-.067.08Q5.244,6.273,1.652,9.864l-.019.019a1.79,1.79,0,0,1-.2.185.913.913,0,0,1-.532.193A.862.862,0,0,1,.516,10.165Z" transform="translate(18.073 34.069) rotate(-90)" fill="#fff"/>
  </g>
</svg>
