<svg xmlns="http://www.w3.org/2000/svg" width="197.421" height="188.069" viewBox="0 0 197.421 188.069"><defs><style>.a{fill:#8cb54e;}.b{fill:#b2d389;}.c{fill:#7ea248;}</style></defs><g transform="translate(-231 -246.632)"><path class="a" d="M332.551,248.4,360.6,305.231a3.168,3.168,0,0,0,2.385,1.733l62.719,9.114a3.168,3.168,0,0,1,1.756,5.4L382.077,365.72a3.166,3.166,0,0,0-.911,2.8l10.714,62.466a3.168,3.168,0,0,1-4.6,3.34l-56.1-29.493a3.168,3.168,0,0,0-2.948,0l-56.1,29.493a3.168,3.168,0,0,1-4.6-3.34l10.714-62.466a3.168,3.168,0,0,0-.911-2.8L231.96,321.482a3.168,3.168,0,0,1,1.756-5.4l62.719-9.114a3.168,3.168,0,0,0,2.385-1.733L326.87,248.4A3.168,3.168,0,0,1,332.551,248.4Z" transform="translate(0 0)"/><g transform="translate(243.77 261.526)"><path class="b" d="M359.632,296.423l-25,48.415a8.368,8.368,0,0,1-6.674,4.494l-54.271,4.954,57.338,2.681a8.367,8.367,0,0,0,8.239-5.457Z" transform="translate(-273.692 -296.423)"/></g><path class="c" d="M354.283,579.37l-1.233,7.188a3.168,3.168,0,0,0,4.6,3.34l56.1-29.493a3.168,3.168,0,0,1,2.948,0l56.1,29.493a3.168,3.168,0,0,0,4.6-3.34l-10.714-62.466a3.17,3.17,0,0,1,.911-2.8l45.384-44.238a3.168,3.168,0,0,0-1.756-5.4l-21.007-3.053C456.228,529.57,404.2,561.674,354.283,579.37Z" transform="translate(-85.509 -155.567)"/></g></svg>