<svg xmlns="http://www.w3.org/2000/svg" width="169.714" height="223.947" viewBox="0 0 169.714 223.947"><defs><style>.a{fill:#f0d3ae;}.b{fill:#8cb54e;}.c{fill:#dac1a0;}.d{fill:#763d15;}</style></defs><g transform="translate(-565.167 -104.588) rotate(7)"><g transform="translate(621.031 218.192)"><path class="a" d="M638.775,217.328l-7.251-4.553S619.553,227,620.4,233.716l4.343,2.729C631.165,234.289,638.775,217.328,638.775,217.328Z" transform="translate(-620.359 -212.775)"/><path class="a" d="M704.407,217.328l7.251-4.553S723.628,227,722.78,233.716l-4.344,2.729C712.017,234.289,704.407,217.328,704.407,217.328Z" transform="translate(-617.864 -212.775)"/></g><g transform="translate(597.73 30.31)"><path class="a" d="M705.927,97.555a.484.484,0,0,1-.165-.663l19.857-33.015a.484.484,0,0,1,.662-.165l3.7,2.225a.484.484,0,0,1,.165.662L710.287,99.615a.484.484,0,0,1-.661.165Z" transform="translate(-594.525 -29.32)"/><path class="b" d="M696.367,63.091c6.506-2.274,19.651,1.5,29.066,7.168s18.913,15.5,19.953,22.316c1.06,6.929-4.313,12.662-4.313,12.662-6.832-.2-13.988-4.311-28.573-12.247-.277-.153-.823-.478-1.086-.655-13.774-9.268-20.832-13.559-24.211-19.5C687.2,72.836,689.749,65.4,696.367,63.091Z" transform="translate(-595.074 -29.357)"/><path class="a" d="M.469,0H4.815a.468.468,0,0,1,.468.468V39.023a.469.469,0,0,1-.469.469H.468A.468.468,0,0,1,0,39.024V.469A.469.469,0,0,1,.469,0Z" transform="matrix(0.857, -0.515, 0.515, 0.857, 14.581, 36.866)"/><path class="b" d="M646.887,63.091c-6.505-2.274-19.65,1.5-29.066,7.168s-18.912,15.5-19.952,22.316c-1.06,6.929,4.312,12.662,4.312,12.662,6.833-.2,13.991-4.311,28.574-12.247.278-.153.823-.478,1.085-.655,13.774-9.268,20.834-13.559,24.212-19.5C656.053,72.836,653.506,65.4,646.887,63.091Z" transform="translate(-597.73 -29.357)"/><path class="a" d="M620.113,67.81c6.631-5.065,8.44-6.512,8.923-12.3s-1.326-9.285,2.05-13.022c3.1-3.438,17.219-10.035,25.939-11.074.764-.091,11.644-1.1,15.538-1.1,3.972,0,14.967,1.028,15.843,1.143,8.741,1.154,22.567,7.638,25.635,11.036,3.376,3.738,1.567,7.235,2.05,13.022s2.29,7.234,8.922,12.3,9.164,8.2,9.164,8.2c-3.015.242-15.073-8.32-20.258-13.143s-4.34-12.419-4.221-14.831-3.857-5.064-10.488-7.595-19.946-2.9-26.647-2.9-20.015.362-26.647,2.9-10.611,5.183-10.489,7.595.964,10.008-4.221,14.831-17.242,13.385-20.257,13.143C610.949,76.009,613.481,72.873,620.113,67.81Z" transform="translate(-597.338 -30.31)"/></g><path class="b" d="M748.734,158.244a75.239,75.239,0,1,0-75.239,75.238A75.239,75.239,0,0,0,748.734,158.244Z" transform="translate(0.016 1.564)"/><circle class="c" cx="66.316" cy="66.316" r="66.316" transform="translate(607.194 93.493)"/><path class="a" d="M732.111,157.778a59.082,59.082,0,1,0-59.082,59.082A59.08,59.08,0,0,0,732.111,157.778Z" transform="translate(0.482 2.03)"/><path class="d" d="M678.024,156.263a6.511,6.511,0,1,0-6.512,6.511A6.512,6.512,0,0,0,678.024,156.263Z" transform="translate(1.997 3.546)"/><path class="d" d="M654.63,140.653c-3.2-1.75-16.366-6.326-20.573-7.771,3.153,3.135,13.076,12.93,16.058,15.024,3.565,2.5,21.462,10.232,21.462,10.232l1.711-2.75S658.449,142.745,654.63,140.653Z" transform="translate(1.078 3.045)"/><path class="d" d="M697.742,143.285c3.8-2.53,17.275-13.129,21.566-16.515-4.909,2.4-20.3,9.958-24.223,12.289-4.689,2.783-24.248,17.085-24.248,17.085l1.007,1.6S693.2,146.306,697.742,143.285Z" transform="translate(2.17 2.864)"/><path class="d" d="M672.551,211.308c-.359,0-1.531-.167-1.531-2.321v-1.061a2.042,2.042,0,1,1,4.047-.014l.007,1.064a2.65,2.65,0,0,1-.643,1.879,1.485,1.485,0,0,1-1.056.451Zm-25.56-6.649-.313-.164-.734-.423a1.544,1.544,0,0,1-.711-.95,2.618,2.618,0,0,1,.363-1.936l.533-.918a2.369,2.369,0,0,1,1.922-1.335,1.485,1.485,0,0,1,.742.2l1.127.644.177.543a2.7,2.7,0,0,1-.464,1.965l-.524.924c-.825,1.454-1.56,1.454-1.8,1.454Zm51.948-.374a2.357,2.357,0,0,1-1.992-1.242l-.531-.917A2.171,2.171,0,0,1,697,199.1a1.843,1.843,0,0,1,.923-.245,2.371,2.371,0,0,1,1.99,1.232l.537.913a2.469,2.469,0,0,1,.292,1.859,1.891,1.891,0,0,1-.871,1.172A1.849,1.849,0,0,1,698.938,204.285Zm-70.73-18.7a1.964,1.964,0,0,1-1.734-.942,1.892,1.892,0,0,1-.179-1.452,2.46,2.46,0,0,1,1.169-1.471l.919-.532a2.606,2.606,0,0,1,1.292-.355,1.955,1.955,0,0,1,1.73.939,2.168,2.168,0,0,1-.985,2.913l-.915.538A2.555,2.555,0,0,1,628.208,185.587Zm89.5-.3a2.567,2.567,0,0,1-1.286-.356l-.921-.535a2.174,2.174,0,0,1-1-2.9,1.954,1.954,0,0,1,1.736-.947,2.6,2.6,0,0,1,1.28.347l.925.527a2.169,2.169,0,0,1,1.009,2.914A1.967,1.967,0,0,1,717.712,185.285ZM621.5,159.853a2.161,2.161,0,0,1-2.312-2.019,1.891,1.891,0,0,1,.57-1.344,2.469,2.469,0,0,1,1.748-.691h1.063a2.04,2.04,0,1,1,.022,4.043Zm101.674-.347a2.749,2.749,0,0,1-1.922-.6l-.354-.358-.042-.605,0-.842c0-1.011.968-1.744,2.311-1.755l1.062-.009c1.342,0,2.33.773,2.334,1.8l0,.891c-.008.565-.322,1.483-2.323,1.483Zm-93.7-24.752a2.6,2.6,0,0,1-1.28-.348l-.922-.523a2.624,2.624,0,0,1-1.287-1.5,1.549,1.549,0,0,1,.137-1.18l.413-.719a1.337,1.337,0,0,1,1.178-.654,3.463,3.463,0,0,1,1.58.532l.915.532a2.173,2.173,0,0,1,1,2.906A1.955,1.955,0,0,1,629.477,134.755Zm86.407-.326a1.6,1.6,0,0,1-1.432-.764l-.4-.693c-.279-.473-.5-1.425,1.24-2.458l.916-.543a3.436,3.436,0,0,1,1.587-.546,1.333,1.333,0,0,1,1.165.635l.427.731a1.541,1.541,0,0,1,.145,1.175,2.623,2.623,0,0,1-1.275,1.5l-.918.533A3,3,0,0,1,715.884,134.428ZM647.709,116.51a2.377,2.377,0,0,1-1.92-1.317l-.542-.917a2.616,2.616,0,0,1-.375-1.934,1.541,1.541,0,0,1,.708-.959l1-.584.366-.01c.242,0,.975,0,1.8,1.442l.531.917c1.046,1.811.266,2.528-.118,2.752-.143.081-.449.259-.691.4A1.5,1.5,0,0,1,647.709,116.51Zm49.938-.229a1.483,1.483,0,0,1-.736-.194l-.708-.4a1.414,1.414,0,0,1-.571-1.746,4.63,4.63,0,0,1,.426-1l.522-.929a2.346,2.346,0,0,1,1.93-1.352,1.507,1.507,0,0,1,.744.195l.724.414c.486.286,1.131,1.014.125,2.754l-.533.921A2.369,2.369,0,0,1,697.647,116.282Zm-25-6.639a2.172,2.172,0,0,1-2.026-2.305l-.011-1.063a2.476,2.476,0,0,1,.674-1.766,1.868,1.868,0,0,1,1.325-.57,2.175,2.175,0,0,1,2.031,2.3l.015,1.063a2.462,2.462,0,0,1-.669,1.764,1.865,1.865,0,0,1-1.332.577Z" transform="translate(0.637 2.186)"/></g></svg>