<svg xmlns="http://www.w3.org/2000/svg" width="130.397" height="208.733" viewBox="0 0 130.397 208.733"><defs><style>.a{fill:#83a026;}.b{fill:#85a738;}.c{fill:#ffc400;}.d{fill:#6e892a;}.e{fill:#e5d6d6;mix-blend-mode:multiply;isolation:isolate;}.f{fill:#84a322;}.g{fill:#697b27;}.h{fill:#8cb427;}</style></defs><g transform="translate(-421.38 -159.121)"><path class="a" d="M543.786,299.152v19.37a7.426,7.426,0,0,1-2.71,5.3,18.769,18.769,0,0,1-1.725,1.421,29.834,29.834,0,0,1-4.434,2.587c-.551.255-1.123.525-1.725.779a59.134,59.134,0,0,1-7.025,2.471q-.842.252-1.713.506c-2.849.762-5.935,1.456-9.244,2.048-.564.1-1.144.2-1.725.3-2.71.439-5.547.846-8.5,1.169-.573.049-1.144.118-1.716.168-1.969.2-3.982.356-6.041.491-.571.05-1.143.085-1.724.118-2.573.136-5.2.22-7.885.272-.569,0-1.143.016-1.722.016h-1.234q-3.754,0-7.391-.136c-.581-.016-1.153-.05-1.724-.067-2.475-.118-4.9-.288-7.263-.492-.58-.048-1.163-.1-1.734-.151-1.636-.152-3.231-.338-4.8-.524-.582-.085-1.155-.153-1.728-.238-1.99-.27-3.93-.575-5.793-.914-.582-.1-1.153-.2-1.716-.321-1.625-.3-3.182-.643-4.691-1.014-.58-.136-1.151-.271-1.713-.422-1.872-.476-3.637-.983-5.3-1.54-.592-.186-1.163-.389-1.724-.592a45.087,45.087,0,0,1-4.8-2c-.612-.287-1.185-.591-1.735-.9a22.6,22.6,0,0,1-3.686-2.488,12.942,12.942,0,0,1-1.733-1.759,6.588,6.588,0,0,1-1.6-4.095v-19.37Z" transform="translate(0.94 31.687)"/><path class="b" d="M543.786,302.042c0,8.634-26.472,15.633-59.126,15.633s-59.126-7-59.126-15.633S452,286.409,484.659,286.409,543.786,293.409,543.786,302.042Z" transform="translate(0.94 28.803)"/><path class="c" d="M531.236,299.445c0,5.938-21.726,10.752-48.531,10.752s-48.533-4.814-48.533-10.752S455.9,288.693,482.7,288.693,531.236,293.506,531.236,299.445Z" transform="translate(2.895 29.32)"/><path class="d" d="M435.653,302.089c5.32-4.66,24.365-8.109,47.051-8.109s41.734,3.45,47.05,8.109a3.63,3.63,0,0,0,1.481-2.644c0-5.939-21.726-10.752-48.531-10.752s-48.533,4.813-48.533,10.752A3.634,3.634,0,0,0,435.653,302.089Z" transform="translate(2.895 29.32)"/><g transform="translate(428.071 337.605)"><path class="d" d="M428.569,306.229v16.545a12.942,12.942,0,0,1-1.733-1.759V306.229Z" transform="translate(-426.836 -304.317)"/><path class="d" d="M432.99,310.189v15.072c-.612-.287-1.185-.591-1.735-.9V310.189Z" transform="translate(-425.836 -303.421)"/><path class="d" d="M438.308,312.616V327.3c-.592-.186-1.163-.389-1.724-.592V312.616Z" transform="translate(-424.63 -302.872)"/><path class="d" d="M444.026,314.244V328.9c-.58-.136-1.151-.271-1.713-.422v-14.23Z" transform="translate(-423.334 -302.504)"/><path class="d" d="M449.251,315.8v14.075c-.582-.1-1.153-.2-1.716-.321V315.8Z" transform="translate(-422.152 -302.151)"/><path class="d" d="M455.386,316.838V330.8c-.582-.085-1.155-.153-1.728-.238v-13.72Z" transform="translate(-420.767 -301.917)"/><path class="d" d="M460.713,316.838V331.47c-.58-.048-1.163-.1-1.734-.151V316.838Z" transform="translate(-419.563 -301.917)"/><path class="d" d="M468.04,316.838v15.191c-.581-.016-1.153-.05-1.724-.067V316.838Z" transform="translate(-417.902 -301.917)"/><path class="d" d="M476.477,315.8v16.581c-.569,0-1.143.016-1.722.016V315.8Z" transform="translate(-415.993 -302.151)"/><path class="d" d="M484.313,314.244v18.1c-.571.05-1.143.085-1.724.118v-18.22Z" transform="translate(-414.22 -302.504)"/><path class="d" d="M490.637,314.244v17.444c-.573.049-1.144.118-1.716.168V314.244Z" transform="translate(-412.787 -302.504)"/><path class="d" d="M498.979,312.616v17.967c-.564.1-1.144.2-1.725.3V312.616Z" transform="translate(-410.902 -302.872)"/><path class="d" d="M507.912,311.057v17.325q-.842.252-1.713.506V311.057Z" transform="translate(-408.878 -303.225)"/><path class="d" d="M515.05,307.264v18.727c-.551.255-1.123.525-1.725.779V307.264Z" transform="translate(-407.265 -304.083)"/><path class="d" d="M520.073,304.67v17.9a18.769,18.769,0,0,1-1.725,1.421V304.67Z" transform="translate(-406.128 -304.67)"/></g><path class="e" d="M541.076,313.264a18.977,18.977,0,0,1-1.725,1.42,29.839,29.839,0,0,1-4.434,2.587c-.551.255-1.123.525-1.725.779a58.928,58.928,0,0,1-7.025,2.471q-.842.252-1.713.508c-2.849.76-5.935,1.454-9.244,2.045-.564.1-1.144.2-1.725.305-2.71.439-5.547.847-8.5,1.169-.573.049-1.144.118-1.716.168-1.969.2-3.982.356-6.041.49-.571.05-1.143.085-1.724.119-2.573.136-5.2.219-7.885.271-.569,0-1.143.016-1.722.016h-1.234c-2.5,0-4.965-.05-7.391-.135-.581-.016-1.153-.05-1.724-.069-2.475-.118-4.9-.288-7.263-.49-.58-.049-1.163-.1-1.734-.151-1.636-.152-3.231-.34-4.8-.525-.582-.085-1.155-.152-1.728-.238-1.99-.27-3.93-.575-5.793-.914-.582-.1-1.153-.2-1.716-.321-1.625-.3-3.182-.644-4.691-1.014-.58-.136-1.151-.271-1.713-.423-1.872-.475-3.637-.981-5.3-1.539-.592-.186-1.163-.39-1.724-.593a45.1,45.1,0,0,1-4.8-2c-.612-.288-1.185-.592-1.735-.9a22.525,22.525,0,0,1-3.686-2.487,12.874,12.874,0,0,1-1.733-1.758,6.586,6.586,0,0,1-1.6-4.1v8.562a6.588,6.588,0,0,0,1.6,4.095,12.94,12.94,0,0,0,1.733,1.759,22.6,22.6,0,0,0,3.686,2.488c.551.3,1.123.608,1.735.9a45.087,45.087,0,0,0,4.8,2c.562.2,1.132.406,1.724.592,1.664.557,3.429,1.064,5.3,1.54.562.151,1.133.286,1.713.422,1.508.372,3.066.71,4.691,1.014.563.119,1.133.221,1.716.321,1.863.338,3.8.644,5.793.914.573.085,1.145.153,1.728.238,1.566.185,3.161.372,4.8.524.571.05,1.154.1,1.734.151,2.367.2,4.789.374,7.263.492.571.017,1.143.052,1.724.068q3.638.131,7.391.136h1.234c.579,0,1.153-.016,1.722-.016,2.683-.053,5.312-.136,7.885-.272.581-.033,1.153-.067,1.724-.118,2.059-.135,4.071-.289,6.041-.491.571-.05,1.143-.119,1.716-.168,2.957-.323,5.793-.73,8.5-1.169.581-.1,1.161-.2,1.725-.3,3.308-.592,6.4-1.286,9.244-2.048q.872-.254,1.713-.506a59.134,59.134,0,0,0,7.025-2.471c.6-.254,1.175-.524,1.725-.779a29.839,29.839,0,0,0,4.434-2.587,18.779,18.779,0,0,0,1.725-1.421,7.426,7.426,0,0,0,2.71-5.3v-8.562A7.433,7.433,0,0,1,541.076,313.264Z" transform="translate(0.94 33.681)"/><path class="a" d="M539.63,279.971v19.37a7.422,7.422,0,0,1-2.71,5.3,19.06,19.06,0,0,1-1.723,1.42,30.309,30.309,0,0,1-4.434,2.59c-.552.254-1.123.524-1.725.776a58.971,58.971,0,0,1-7.024,2.471q-.846.254-1.716.509c-2.847.76-5.933,1.453-9.243,2.045-.563.1-1.145.2-1.725.305-2.711.439-5.549.846-8.507,1.167-.569.05-1.139.118-1.713.168-1.971.2-3.982.356-6.041.491-.573.051-1.142.086-1.724.119-2.572.136-5.2.221-7.885.272-.57,0-1.142.016-1.724.016h-1.231c-2.5,0-4.966-.052-7.39-.137-.583-.015-1.153-.049-1.725-.066-2.472-.118-4.9-.287-7.262-.491l-1.734-.152c-1.636-.152-3.231-.34-4.8-.525-.581-.083-1.154-.152-1.724-.237-1.99-.27-3.933-.575-5.793-.914-.584-.1-1.154-.2-1.718-.321-1.625-.3-3.181-.643-4.689-1.015-.581-.135-1.153-.271-1.714-.422-1.874-.475-3.637-.981-5.3-1.54-.591-.185-1.163-.389-1.723-.592a44.917,44.917,0,0,1-4.8-2c-.612-.287-1.183-.591-1.735-.9a22.266,22.266,0,0,1-3.684-2.488,12.754,12.754,0,0,1-1.735-1.757,6.587,6.587,0,0,1-1.6-4.1v-19.37Z" transform="translate(0 27.346)"/><ellipse class="b" cx="59.125" cy="15.633" rx="59.125" ry="15.633" transform="translate(421.38 291.692)"/><path class="c" d="M527.083,280.267c0,5.936-21.728,10.751-48.533,10.751s-48.534-4.814-48.534-10.751,21.731-10.756,48.534-10.756S527.083,274.327,527.083,280.267Z" transform="translate(1.954 24.979)"/><path class="d" d="M431.5,282.908c5.317-4.66,24.365-8.108,47.05-8.108s41.733,3.448,47.05,8.108a3.626,3.626,0,0,0,1.483-2.641c0-5.94-21.728-10.756-48.533-10.756s-48.534,4.816-48.534,10.756A3.632,3.632,0,0,0,431.5,282.908Z" transform="translate(1.954 24.979)"/><g transform="translate(422.977 314.085)"><path class="d" d="M424.417,287.049v16.544a12.754,12.754,0,0,1-1.735-1.757V287.049Z" transform="translate(-422.682 -285.137)"/><path class="d" d="M428.836,291.008v15.073c-.612-.287-1.183-.591-1.735-.9V291.008Z" transform="translate(-421.682 -284.241)"/><path class="d" d="M434.152,293.436v14.685c-.591-.185-1.163-.389-1.723-.592V293.436Z" transform="translate(-420.476 -283.692)"/><path class="d" d="M439.873,295.064v14.65c-.581-.135-1.153-.271-1.714-.422V295.064Z" transform="translate(-419.18 -283.324)"/><path class="d" d="M445.1,296.622V310.7c-.584-.1-1.154-.2-1.718-.321V296.622Z" transform="translate(-417.998 -282.971)"/><path class="d" d="M451.23,297.657v13.958c-.581-.083-1.154-.152-1.724-.237V297.657Z" transform="translate(-416.612 -282.737)"/><path class="d" d="M456.56,297.657v14.634l-1.734-.152V297.657Z" transform="translate(-415.408 -282.737)"/><path class="d" d="M463.887,297.657v15.191c-.583-.015-1.153-.049-1.725-.066V297.657Z" transform="translate(-413.748 -282.737)"/><path class="d" d="M472.323,296.622V313.2c-.57,0-1.142.016-1.724.016v-16.6Z" transform="translate(-411.839 -282.971)"/><path class="d" d="M480.159,295.064v18.1c-.573.051-1.142.086-1.724.119v-18.22Z" transform="translate(-410.066 -283.324)"/><path class="d" d="M486.48,295.064v17.443c-.569.05-1.139.118-1.713.168V295.064Z" transform="translate(-408.633 -283.324)"/><path class="d" d="M494.826,293.436V311.4c-.563.1-1.145.2-1.725.305V293.436Z" transform="translate(-406.747 -283.692)"/><path class="d" d="M503.761,291.878V309.2q-.846.254-1.716.509V291.878Z" transform="translate(-404.724 -284.044)"/><path class="d" d="M510.9,288.083v18.729c-.552.254-1.123.524-1.725.776V288.083Z" transform="translate(-403.111 -284.903)"/><path class="d" d="M515.918,285.49v17.9a19.06,19.06,0,0,1-1.723,1.42V285.49Z" transform="translate(-401.974 -285.49)"/></g><path class="e" d="M536.92,294.082a18.857,18.857,0,0,1-1.723,1.42,30.1,30.1,0,0,1-4.434,2.589c-.552.255-1.123.525-1.725.779a59.188,59.188,0,0,1-7.024,2.471c-.564.168-1.136.338-1.716.506-2.847.762-5.933,1.456-9.243,2.047-.563.1-1.145.2-1.725.3-2.711.441-5.549.847-8.507,1.167-.569.052-1.139.119-1.713.17-1.971.2-3.982.356-6.041.489-.573.052-1.142.086-1.724.119-2.572.136-5.2.219-7.885.271-.57,0-1.142.017-1.724.017h-1.231c-2.5,0-4.966-.05-7.39-.135-.583-.017-1.153-.052-1.725-.068-2.472-.119-4.9-.288-7.262-.492-.582-.05-1.163-.1-1.734-.152-1.636-.152-3.231-.338-4.8-.525-.581-.083-1.154-.152-1.724-.237-1.99-.27-3.933-.575-5.793-.915-.584-.1-1.154-.2-1.718-.321-1.625-.3-3.181-.643-4.689-1.013-.581-.136-1.153-.271-1.714-.424-1.874-.472-3.637-.98-5.3-1.539-.591-.185-1.163-.388-1.723-.591a45.435,45.435,0,0,1-4.8-2c-.612-.288-1.183-.591-1.735-.9a22.339,22.339,0,0,1-3.684-2.487,12.762,12.762,0,0,1-1.735-1.76,6.583,6.583,0,0,1-1.6-4.093v8.559a6.587,6.587,0,0,0,1.6,4.1,12.754,12.754,0,0,0,1.735,1.757,22.265,22.265,0,0,0,3.684,2.488c.552.305,1.123.609,1.735.9a44.929,44.929,0,0,0,4.8,2c.56.2,1.132.407,1.723.592,1.667.559,3.43,1.066,5.3,1.54.562.151,1.133.287,1.714.422,1.508.373,3.064.711,4.689,1.015.564.119,1.134.221,1.718.321,1.86.338,3.8.644,5.793.914.57.085,1.143.153,1.724.237,1.568.185,3.164.373,4.8.525l1.734.152c2.364.2,4.79.373,7.262.491.573.017,1.143.051,1.725.066,2.423.086,4.887.137,7.39.137h1.231c.582,0,1.154-.016,1.724-.016,2.682-.052,5.313-.136,7.885-.272.582-.033,1.151-.067,1.724-.119,2.059-.135,4.07-.287,6.041-.491.574-.05,1.144-.118,1.713-.168,2.958-.321,5.8-.728,8.507-1.167.58-.1,1.162-.2,1.725-.305,3.31-.592,6.4-1.285,9.243-2.045q.87-.256,1.716-.509a58.96,58.96,0,0,0,7.024-2.471c.6-.253,1.174-.522,1.725-.776a30.309,30.309,0,0,0,4.434-2.59,19.06,19.06,0,0,0,1.723-1.42,7.421,7.421,0,0,0,2.71-5.3v-8.559A7.415,7.415,0,0,1,536.92,294.082Z" transform="translate(0 29.341)"/><path class="a" d="M543.786,259.832V279.2a7.431,7.431,0,0,1-2.71,5.3,18.956,18.956,0,0,1-1.725,1.42,29.839,29.839,0,0,1-4.434,2.587c-.551.255-1.123.526-1.725.78a58.919,58.919,0,0,1-7.025,2.469c-.562.17-1.132.338-1.713.51-2.849.76-5.935,1.454-9.244,2.045-.564.1-1.144.2-1.725.305-2.71.439-5.547.845-8.5,1.167-.573.049-1.144.118-1.716.168-1.969.2-3.982.356-6.041.491-.571.052-1.143.085-1.724.119-2.573.136-5.2.221-7.885.271-.569,0-1.143.016-1.722.016h-1.234c-2.5,0-4.965-.05-7.391-.135-.581-.016-1.153-.05-1.724-.069-2.475-.118-4.9-.287-7.263-.49-.58-.05-1.163-.1-1.734-.152-1.636-.152-3.231-.338-4.8-.524-.582-.085-1.155-.152-1.728-.238-1.99-.27-3.93-.574-5.793-.914-.582-.1-1.153-.2-1.716-.321-1.625-.3-3.182-.641-4.691-1.014-.58-.136-1.151-.271-1.713-.422-1.872-.476-3.637-.982-5.3-1.54-.592-.188-1.163-.39-1.724-.594a44.839,44.839,0,0,1-4.8-2c-.612-.287-1.185-.591-1.735-.9a22.448,22.448,0,0,1-3.686-2.487,12.8,12.8,0,0,1-1.733-1.759,6.586,6.586,0,0,1-1.6-4.1v-19.37Z" transform="translate(0.94 22.789)"/><path class="b" d="M543.786,262.724c0,8.633-26.472,15.633-59.126,15.633s-59.126-7-59.126-15.633S452,247.091,484.659,247.091,543.786,254.089,543.786,262.724Z" transform="translate(0.94 19.906)"/><path class="c" d="M531.236,260.126c0,5.939-21.726,10.752-48.531,10.752s-48.533-4.813-48.533-10.752S455.9,249.374,482.7,249.374,531.236,254.188,531.236,260.126Z" transform="translate(2.895 20.423)"/><path class="d" d="M435.653,262.77c5.32-4.661,24.365-8.109,47.051-8.109s41.734,3.448,47.05,8.109a3.63,3.63,0,0,0,1.481-2.644c0-5.938-21.726-10.752-48.531-10.752s-48.533,4.814-48.533,10.752A3.634,3.634,0,0,0,435.653,262.77Z" transform="translate(2.895 20.423)"/><g transform="translate(428.071 289.389)"><path class="d" d="M428.569,266.91v16.545a12.8,12.8,0,0,1-1.733-1.759V266.91Z" transform="translate(-426.836 -264.998)"/><path class="d" d="M432.99,270.869v15.073c-.612-.287-1.185-.591-1.735-.9V270.869Z" transform="translate(-425.836 -264.102)"/><path class="d" d="M438.308,273.3v14.685c-.592-.188-1.163-.39-1.724-.594V273.3Z" transform="translate(-424.63 -263.553)"/><path class="d" d="M444.026,274.926v14.65c-.58-.136-1.151-.271-1.713-.422V274.926Z" transform="translate(-423.334 -263.184)"/><path class="d" d="M449.251,276.485v14.074c-.582-.1-1.153-.2-1.716-.321V276.485Z" transform="translate(-422.152 -262.832)"/><path class="d" d="M455.386,277.52v13.956c-.582-.085-1.155-.152-1.728-.238V277.52Z" transform="translate(-420.767 -262.597)"/><path class="d" d="M460.713,277.52v14.632c-.58-.05-1.163-.1-1.734-.152V277.52Z" transform="translate(-419.563 -262.597)"/><path class="d" d="M468.04,277.52v15.191c-.581-.016-1.153-.05-1.724-.069V277.52Z" transform="translate(-417.902 -262.597)"/><path class="d" d="M476.477,276.485v16.579c-.569,0-1.143.016-1.722.016v-16.6Z" transform="translate(-415.993 -262.832)"/><path class="d" d="M484.313,274.926v18.1c-.571.052-1.143.085-1.724.119v-18.22Z" transform="translate(-414.22 -263.184)"/><path class="d" d="M490.637,274.926v17.443c-.573.049-1.144.118-1.716.168V274.926Z" transform="translate(-412.787 -263.184)"/><path class="d" d="M498.979,273.3v17.966c-.564.1-1.144.2-1.725.305V273.3Z" transform="translate(-410.902 -263.553)"/><path class="d" d="M507.912,271.739v17.322c-.562.17-1.132.338-1.713.51V271.739Z" transform="translate(-408.878 -263.906)"/><path class="d" d="M515.05,267.945v18.727c-.551.255-1.123.526-1.725.78V267.945Z" transform="translate(-407.265 -264.764)"/><path class="d" d="M520.073,265.351v17.9a18.961,18.961,0,0,1-1.725,1.42v-19.32Z" transform="translate(-406.128 -265.351)"/></g><path class="e" d="M541.076,273.944a18.975,18.975,0,0,1-1.725,1.421,29.947,29.947,0,0,1-4.434,2.586c-.551.255-1.123.525-1.725.779a58.686,58.686,0,0,1-7.025,2.472q-.842.252-1.713.507c-2.849.762-5.935,1.456-9.244,2.048-.564.1-1.144.2-1.725.3-2.71.439-5.547.846-8.5,1.166-.573.05-1.144.119-1.716.17-1.969.2-3.982.354-6.041.489-.571.052-1.143.086-1.724.119-2.573.135-5.2.22-7.885.27-.569,0-1.143.017-1.722.017h-1.234c-2.5,0-4.965-.05-7.391-.135-.581-.017-1.153-.05-1.724-.067-2.475-.118-4.9-.288-7.263-.492l-1.734-.151c-1.636-.152-3.231-.338-4.8-.525-.582-.085-1.155-.152-1.728-.238-1.99-.269-3.93-.574-5.793-.912-.582-.1-1.153-.2-1.716-.323-1.625-.3-3.182-.641-4.691-1.014-.58-.135-1.151-.271-1.713-.423-1.872-.475-3.637-.981-5.3-1.539-.592-.188-1.163-.39-1.724-.592a44.829,44.829,0,0,1-4.8-2c-.612-.287-1.185-.591-1.735-.9a22.45,22.45,0,0,1-3.686-2.488,12.874,12.874,0,0,1-1.733-1.758,6.588,6.588,0,0,1-1.6-4.095v8.559a6.586,6.586,0,0,0,1.6,4.1,12.8,12.8,0,0,0,1.733,1.759,22.45,22.45,0,0,0,3.686,2.487c.551.305,1.123.609,1.735.9a44.833,44.833,0,0,0,4.8,2c.562.2,1.132.406,1.724.594,1.664.558,3.429,1.064,5.3,1.54.562.151,1.133.286,1.713.422,1.508.373,3.066.711,4.691,1.014.563.12,1.133.222,1.716.321,1.863.34,3.8.644,5.793.914.573.086,1.145.153,1.728.238,1.566.185,3.161.372,4.8.524.571.049,1.154.1,1.734.152,2.367.2,4.789.373,7.263.49.571.018,1.143.053,1.724.069,2.426.085,4.888.135,7.391.135h1.234c.579,0,1.153-.016,1.722-.016,2.683-.05,5.312-.135,7.885-.271.581-.034,1.153-.067,1.724-.119,2.059-.135,4.071-.288,6.041-.491.571-.05,1.143-.119,1.716-.168,2.957-.323,5.793-.728,8.5-1.167.581-.1,1.161-.2,1.725-.305,3.308-.591,6.4-1.285,9.244-2.045.581-.172,1.151-.34,1.713-.51a58.919,58.919,0,0,0,7.025-2.469c.6-.254,1.175-.525,1.725-.78a29.837,29.837,0,0,0,4.434-2.587,18.961,18.961,0,0,0,1.725-1.42,7.431,7.431,0,0,0,2.71-5.3v-8.559A7.426,7.426,0,0,1,541.076,273.944Z" transform="translate(0.94 24.784)"/><path class="a" d="M548.979,240.652v19.372a7.428,7.428,0,0,1-2.71,5.3,18.882,18.882,0,0,1-1.727,1.42,29.788,29.788,0,0,1-4.434,2.589c-.553.255-1.125.525-1.724.779a58.856,58.856,0,0,1-7.027,2.471c-.562.168-1.132.338-1.714.506-2.847.762-5.932,1.454-9.243,2.047-.562.1-1.143.2-1.724.305-2.71.44-5.549.846-8.5,1.167-.575.05-1.145.118-1.716.17-1.972.2-3.982.354-6.043.489-.568.05-1.142.085-1.722.118-2.574.136-5.2.22-7.885.271-.571,0-1.143.017-1.723.017h-1.234c-2.5,0-4.966-.05-7.392-.135-.579-.017-1.151-.051-1.722-.067-2.473-.119-4.9-.288-7.265-.492l-1.734-.151c-1.636-.153-3.234-.341-4.8-.526-.581-.083-1.154-.152-1.727-.237-1.989-.27-3.93-.574-5.793-.914-.58-.1-1.153-.2-1.716-.323-1.625-.3-3.182-.643-4.691-1.013-.58-.135-1.151-.271-1.712-.424-1.874-.472-3.638-.98-5.3-1.539-.591-.185-1.161-.389-1.723-.591a45.234,45.234,0,0,1-4.8-2c-.612-.288-1.183-.592-1.735-.9a22.518,22.518,0,0,1-3.684-2.488,12.533,12.533,0,0,1-1.734-1.758,6.58,6.58,0,0,1-1.6-4.095V240.652Z" transform="translate(2.115 18.449)"/><path class="b" d="M548.979,243.543c0,8.633-26.473,15.633-59.128,15.633s-59.126-7-59.126-15.633S457.2,227.91,489.851,227.91,548.979,234.91,548.979,243.543Z" transform="translate(2.115 15.566)"/><path class="f" d="M536.429,240.947c0,5.936-21.727,10.751-48.533,10.751s-48.531-4.814-48.531-10.751,21.727-10.753,48.531-10.753S536.429,235.007,536.429,240.947Z" transform="translate(4.07 16.083)"/><path class="d" d="M440.846,243.589c5.318-4.66,24.365-8.108,47.05-8.108s41.732,3.448,47.052,8.108a3.634,3.634,0,0,0,1.48-2.641c0-5.94-21.727-10.753-48.533-10.753s-48.531,4.813-48.531,10.753A3.628,3.628,0,0,0,440.846,243.589Z" transform="translate(4.07 16.083)"/><g transform="translate(434.439 265.869)"><path class="d" d="M433.763,247.73v16.545a12.533,12.533,0,0,1-1.734-1.758V247.73Z" transform="translate(-432.029 -245.818)"/><path class="d" d="M438.182,251.689v15.073c-.612-.288-1.183-.592-1.735-.9V251.689Z" transform="translate(-431.029 -244.922)"/><path class="d" d="M443.5,254.116V268.8c-.591-.185-1.161-.389-1.723-.591V254.116Z" transform="translate(-429.823 -244.373)"/><path class="d" d="M449.218,255.745V270.4c-.58-.135-1.151-.271-1.712-.424V255.745Z" transform="translate(-428.527 -244.005)"/><path class="d" d="M454.443,257.3v14.075c-.58-.1-1.153-.2-1.716-.323V257.3Z" transform="translate(-427.345 -243.652)"/><path class="d" d="M460.577,258.339V272.3c-.581-.083-1.154-.152-1.727-.237v-13.72Z" transform="translate(-425.96 -243.418)"/><path class="d" d="M465.9,258.339v14.633l-1.734-.151V258.339Z" transform="translate(-424.756 -243.418)"/><path class="d" d="M473.231,258.339v15.192c-.579-.017-1.151-.051-1.722-.067V258.339Z" transform="translate(-423.095 -243.418)"/><path class="d" d="M481.67,257.3v16.579c-.571,0-1.143.017-1.723.017V257.3Z" transform="translate(-421.186 -243.652)"/><path class="d" d="M489.5,255.745v18.1c-.568.05-1.142.085-1.722.118v-18.22Z" transform="translate(-419.413 -244.005)"/><path class="d" d="M495.83,255.745v17.443c-.575.05-1.145.118-1.716.17V255.745Z" transform="translate(-417.98 -244.005)"/><path class="d" d="M504.171,254.116v17.968c-.562.1-1.143.2-1.724.305V254.116Z" transform="translate(-416.095 -244.373)"/><path class="d" d="M513.1,252.559v17.324c-.562.168-1.132.338-1.714.506v-17.83Z" transform="translate(-414.071 -244.726)"/><path class="d" d="M520.242,248.764v18.728c-.553.255-1.125.525-1.724.779V248.764Z" transform="translate(-412.458 -245.584)"/><path class="d" d="M525.267,246.171v17.9a18.882,18.882,0,0,1-1.727,1.42V246.171Z" transform="translate(-411.322 -246.171)"/></g><path class="e" d="M546.269,254.763a19.3,19.3,0,0,1-1.727,1.421,30.109,30.109,0,0,1-4.434,2.587c-.553.255-1.125.525-1.724.779a59.078,59.078,0,0,1-7.027,2.471c-.562.168-1.132.338-1.714.506-2.847.763-5.932,1.454-9.243,2.048-.562.1-1.143.2-1.724.305-2.71.439-5.549.846-8.5,1.167-.575.049-1.145.118-1.716.168-1.972.2-3.982.356-6.043.491-.568.051-1.142.085-1.722.119-2.574.135-5.2.218-7.885.271-.571,0-1.143.016-1.723.016h-1.234c-2.5,0-4.966-.05-7.392-.136-.579-.016-1.151-.05-1.722-.066-2.473-.119-4.9-.288-7.265-.492-.58-.049-1.163-.1-1.734-.152-1.636-.151-3.234-.34-4.8-.525-.581-.085-1.154-.152-1.727-.237-1.989-.27-3.93-.574-5.793-.914-.58-.1-1.153-.2-1.716-.321-1.625-.3-3.182-.643-4.691-1.014-.58-.136-1.151-.271-1.712-.422-1.874-.475-3.638-.983-5.3-1.541-.591-.185-1.161-.387-1.723-.591a44.986,44.986,0,0,1-4.8-2c-.612-.287-1.183-.591-1.735-.9a22.442,22.442,0,0,1-3.684-2.487,12.471,12.471,0,0,1-1.734-1.758,6.583,6.583,0,0,1-1.6-4.095v8.561a6.58,6.58,0,0,0,1.6,4.095,12.533,12.533,0,0,0,1.734,1.758,22.518,22.518,0,0,0,3.684,2.488c.552.3,1.123.607,1.735.9a45.234,45.234,0,0,0,4.8,2c.562.2,1.132.406,1.723.591,1.665.559,3.43,1.067,5.3,1.539.56.153,1.132.289,1.712.424,1.508.37,3.066.71,4.691,1.013.563.12,1.136.222,1.716.323,1.863.34,3.8.644,5.793.914.573.085,1.145.153,1.727.237,1.565.185,3.163.373,4.8.526l1.734.151c2.367.2,4.791.373,7.265.492.57.016,1.143.05,1.722.067,2.426.085,4.889.135,7.392.135h1.234c.58,0,1.151-.017,1.723-.017,2.681-.051,5.311-.135,7.885-.271.58-.033,1.154-.067,1.722-.118,2.061-.135,4.071-.288,6.043-.489.57-.053,1.14-.12,1.716-.17,2.954-.321,5.793-.727,8.5-1.167.581-.1,1.162-.2,1.724-.305,3.311-.592,6.4-1.285,9.243-2.047.582-.168,1.153-.338,1.714-.506a58.856,58.856,0,0,0,7.027-2.471c.6-.254,1.171-.524,1.724-.779a29.788,29.788,0,0,0,4.434-2.589,18.882,18.882,0,0,0,1.727-1.42,7.428,7.428,0,0,0,2.71-5.3v-8.561A7.426,7.426,0,0,1,546.269,254.763Z" transform="translate(2.115 20.444)"/><path class="d" d="M539.449,210.961c0,.98-.021,1.941-.08,2.9-.039.8-.1,1.589-.2,2.374a48.331,48.331,0,0,1-.785,5.136c-.156.808-.332,1.592-.528,2.377a51,51,0,0,1-3.413,9.393c-.352.806-.764,1.609-1.176,2.374a51.4,51.4,0,0,1-3.316,5.316,28.817,28.817,0,0,1-1.784,2.373,44.5,44.5,0,0,1-4.668,5.139c-.865.844-1.746,1.629-2.646,2.373a49.859,49.859,0,0,1-6.808,4.825,44.2,44.2,0,0,1-4.47,2.372,51.371,51.371,0,0,1-21.948,4.886h-11.77V159.121h11.77a51.475,51.475,0,0,1,23.615,5.708A41.459,41.459,0,0,1,515.4,167.2a48.9,48.9,0,0,1,6.765,5.139c.866.744,1.687,1.55,2.494,2.373a52.4,52.4,0,0,1,7.061,9c.467.766.942,1.55,1.371,2.354a50.693,50.693,0,0,1,4.1,9.729c.237.784.471,1.568.667,2.373a48.829,48.829,0,0,1,1.334,7.766c.1.785.157,1.57.195,2.372Q539.449,209.637,539.449,210.961Z" transform="translate(12.328)"/><g transform="translate(507.292 164.829)"><path class="g" d="M530.357,203.762c-.039.8-.1,1.589-.2,2.374H515.686v-2.374Z" transform="translate(-485.952 -154.728)"/><path class="g" d="M530.229,209.886c-.156.808-.332,1.592-.528,2.377H511.912v-2.377Z" transform="translate(-486.806 -153.342)"/><path class="g" d="M527.084,219.484c-.352.806-.764,1.609-1.176,2.374H508.391v-2.374Z" transform="translate(-487.603 -151.17)"/><path class="g" d="M523.656,225.755a28.817,28.817,0,0,1-1.784,2.373H503.689v-2.373Z" transform="translate(-488.667 -149.751)"/><path class="g" d="M518.34,231.881c-.865.844-1.746,1.629-2.646,2.373H498.668v-2.373Z" transform="translate(-489.803 -148.365)"/><path class="g" d="M510.521,237.751a44.194,44.194,0,0,1-4.47,2.372H491.439v-2.372Z" transform="translate(-491.439 -147.037)"/><path class="g" d="M530.556,199.672H514.887V197.3h15.474C530.458,198.085,530.518,198.87,530.556,199.672Z" transform="translate(-486.133 -156.19)"/><path class="g" d="M529.357,191.4H513.429v-2.373H528.69C528.927,189.816,529.161,190.6,529.357,191.4Z" transform="translate(-486.463 -158.061)"/><path class="g" d="M525.477,181.532H509.513v-2.354h14.593C524.573,179.944,525.048,180.728,525.477,181.532Z" transform="translate(-487.349 -160.291)"/><path class="g" d="M518.935,172.275H501.162V169.9H516.44C517.306,170.646,518.128,171.452,518.935,172.275Z" transform="translate(-489.239 -162.39)"/><path class="g" d="M511.282,166.149H494.061v-2.373h13.064A41.462,41.462,0,0,1,511.282,166.149Z" transform="translate(-490.846 -163.776)"/></g><path class="b" d="M537.252,210.958a51.834,51.834,0,1,1-51.834-51.833A51.832,51.832,0,0,1,537.252,210.958Z" transform="translate(2.761 0.001)"/><path class="h" d="M526.816,209.332a43.024,43.024,0,1,1-43.024-43.024A43.023,43.023,0,0,1,526.816,209.332Z" transform="translate(4.387 1.626)"/><path class="g" d="M487.388,246.754a43.015,43.015,0,0,1-32.167-71.584,43.017,43.017,0,1,0,60.737,60.719A42.843,42.843,0,0,1,487.388,246.754Z" transform="translate(4.387 3.632)"/><g transform="translate(475.114 173.02)"><path class="d" d="M478.729,243.057v-8.931c-5.13-.09-10.436-1.68-13.53-3.892l2.121-5.924a23.57,23.57,0,0,0,12.734,3.8c6.279,0,10.524-3.626,10.524-8.666,0-4.863-3.45-7.87-9.993-10.524-9.021-3.537-14.592-7.6-14.592-15.3,0-7.339,5.218-12.912,13.354-14.237v-8.932h5.481v8.578a23.586,23.586,0,0,1,11.5,3.1l-2.21,5.837a21.374,21.374,0,0,0-11.143-3.007c-6.81,0-9.374,4.068-9.374,7.605,0,4.6,3.272,6.9,10.965,10.08,9.109,3.714,13.707,8.313,13.707,16.183,0,6.986-4.865,13.53-13.972,15.033v9.2Z" transform="translate(-465.199 -170.455)"/></g></g></svg>