<svg xmlns="http://www.w3.org/2000/svg" xmlns:xlink="http://www.w3.org/1999/xlink" width="171.41" height="158.955" viewBox="0 0 171.41 158.955"><defs><style>.a{fill:none;}.b{clip-path:url(#a);}.c{fill:url(#b);}.d{clip-path:url(#c);}.e{fill:url(#d);}.f{fill:#939191;}.g{fill:#70bdb1;}.h{clip-path:url(#e);}.i{fill:url(#f);}.j{clip-path:url(#g);}.k{fill:url(#h);}.l{fill:#272727;}.m{fill:#ea7672;}</style><clipPath id="a"><path class="a" d="M775.175,611.291c-16.088,5.824-40.735,42.134-40.735,72.974a85.705,85.705,0,1,0,144.006-62.82s-9.259-6.475-17.981-5.069-4.5,11.534-6.188,12.378l28.881,40.883s-30.638,13.633-40.317,19.194c-4.158,2.39-15.753,1.672-15.753,1.672L805.33,655.478c.755-5.533-4.126-12.847-4.126-12.847l-11.627-14.44-12.378-4.5s0,2.532-.28-3.094c-.248-4.962,1.766-9.561-.562-9.56a3.6,3.6,0,0,0-1.181.256" transform="translate(-734.44 -611.035)"/></clipPath><linearGradient id="b" x1="-2.759" y1="1.97" x2="-2.756" y2="1.97" gradientUnits="objectBoundingBox"><stop offset="0" stop-color="#cececd"/><stop offset="1" stop-color="#cececd"/></linearGradient><clipPath id="c"><path class="a" d="M827.214,648.671c0,3.75.595,15.745-2.234,22.032s-8.455,30.666-8.455,30.666l19.692,8.064s3.188-36.945,2.25-46.134-2.438-20.255-5.814-21.755a2.993,2.993,0,0,0-1.223-.279c-2.644,0-4.216,4.132-4.216,7.406" transform="translate(-816.525 -641.265)"/></clipPath><linearGradient id="d" x1="-10.194" y1="14.039" x2="-10.181" y2="14.039" gradientUnits="objectBoundingBox"><stop offset="0" stop-color="#cececd"/><stop offset="0.242" stop-color="#c9c9c8"/><stop offset="0.512" stop-color="#bcbcbb"/><stop offset="0.794" stop-color="#a7a5a5"/><stop offset="0.997" stop-color="#939191"/><stop offset="1" stop-color="#939191"/></linearGradient><clipPath id="e"><path class="a" d="M867.469,630.626c-2.814,2.812,5.063,18,5.063,18s3.938,16.5-6.752,29.818-7.127,25.881-7.127,25.881l54.2-14.44c-1.406-6.212-7.135-11.3-11.234-14.249a10.163,10.163,0,0,1-4.074-6.755,66.269,66.269,0,0,0-2.882-10.69c-4.689-13.878-17.253-24.942-19.5-27.568a4.963,4.963,0,0,0-3.7-2.04,5.819,5.819,0,0,0-3.989,2.04" transform="translate(-858.084 -628.586)"/></clipPath><linearGradient id="f" x1="-11.385" y1="4.94" x2="-11.372" y2="4.94" gradientUnits="objectBoundingBox"><stop offset="0" stop-color="#cececd"/><stop offset="0.25" stop-color="#c9c9c8"/><stop offset="0.51" stop-color="#bdbdbc"/><stop offset="0.774" stop-color="#a9a8a8"/><stop offset="0.997" stop-color="#939191"/><stop offset="1" stop-color="#939191"/></linearGradient><clipPath id="g"><path class="a" d="M775.578,684.732l-2.51-1.14a3.8,3.8,0,0,0,2.51,1.14M813.2,639.9c-2.194.084-2.438,4.877-1.875,9.565s-4.126,23.817-19.692,31.131c-8.771,4.122-13.553,4.551-16.056,4.141l36.31,16.49s9.565-22.5,9-40.509c-.547-17.5-2.689-20.824-7.287-20.825q-.2,0-.4.008" transform="translate(-773.068 -639.888)"/></clipPath><linearGradient id="h" x1="-8.651" y1="5.293" x2="-8.639" y2="5.293" gradientUnits="objectBoundingBox"><stop offset="0" stop-color="#cececd"/><stop offset="0.264" stop-color="#cacac9"/><stop offset="0.513" stop-color="#bfbebe"/><stop offset="0.756" stop-color="#acabab"/><stop offset="0.995" stop-color="#939191"/><stop offset="0.997" stop-color="#939191"/><stop offset="1" stop-color="#939191"/></linearGradient></defs><g transform="translate(-426.44 -4576.035)"><g transform="translate(426.44 4576.035)"><g class="b" transform="translate(0)"><rect class="c" width="227.581" height="230.958" transform="translate(-73.643 109.334) rotate(-56.038)"/></g></g><g transform="translate(499.767 4603.04)"><g class="d" transform="translate(0 0)"><rect class="e" width="69.276" height="26.431" transform="translate(-3.578 67.979) rotate(-86.987)"/></g></g><path class="f" d="M854.618,636c2.784-2.784,5.251.75,9.565,4.876s10.5,12.565,10.5,12.565l-3.938,37.508-11.815,8.627s3.735-42.572-1.32-51.76-4.307-10.5-2.994-11.816" transform="translate(-320.718 3962.442)"/><path class="g" d="M755.513,633.128l8.725,9.771c-3.094,2.09-13.509-2.5-13.509-2.5Z" transform="translate(-309.738 3962.643)"/><path class="g" d="M747.512,646.405s5.111,2.692,8.089,2.692-6.686,2.893-10.434,1.868Z" transform="translate(-309.144 3961.226)"/><path class="g" d="M742.993,731.743s20.981,5.529,39.829-5.723-22.894,29.385-27.453,25.353c-5.465-4.835-12.376-19.63-12.376-19.63" transform="translate(-308.913 3952.943)"/><path class="g" d="M776.182,768.577s13.149,8.705,22.893,11.117,10.638-35.515,10.919-40.313-9.8,9.231-16.839,16.583c-11.574,12.1-16.973,12.613-16.973,12.613" transform="translate(-312.453 3951.411)"/><path class="g" d="M831.981,785.366s5.626-20.562,2.813-28.158,9.283,10.127,10.689,15.473,2.461,10.918,2.461,10.918a67.922,67.922,0,0,1-15.963,1.767" transform="translate(-318.407 3949.604)"/><path class="g" d="M869.27,630.377s-3.508-12.19,5.51-13.382a24.8,24.8,0,0,1,20.228,7.242c7.269,7.359,11.864,13.079,16.411,22.9,3.265,7.05-15.05,11.579-15.05,11.579s11.55,1.378,15.407,0l3.858-1.377,2.289,8.017s-8.051.562-10.3,0,6.209,4.45,8.721,4.5,2.512.024,2.512.024l-.931-4.526s-1.763-6.436-2.465-8.546c-2.491-7.487-4.039-9.672-4.039-9.672s-5.753,4.414-11.674,4.717-11.252-3.82-11.252-3.82Z" transform="translate(-322.313 3964.381)"/><g transform="translate(536.892 4591.713)"><g class="h" transform="translate(0 0)"><rect class="i" width="66.671" height="82.295" transform="matrix(0.992, -0.123, 0.123, 0.992, -12.273, 1.155)"/></g></g><path class="g" d="M818.528,699.257s2.413,2.925,8.6,1.8-4.953-.848-7.469-6.332-1.133,4.532-1.133,4.532" transform="translate(-316.931 3956.246)"/><path class="g" d="M821.708,687.152s1.132,4.458,6.413,3.615-3.557-4.054-5.327-7.513-1.086,3.9-1.086,3.9" transform="translate(-317.297 3957.394)"/><g transform="translate(460.947 4601.81)"><g class="j" transform="translate(0 0)"><rect class="k" width="78.111" height="75.665" transform="translate(-29.573 38.784) rotate(-52.674)"/></g></g><path class="g" d="M803.666,677.853s.335,3.715,5.68,6.388-10.224-2.384-10.224-2.384Z" transform="translate(-314.901 3957.871)"/><path class="g" d="M789.333,687.171s8.18,2.77,11.145,2.628-5.53-.56-6.448-4.713Z" transform="translate(-313.857 3957.099)"/><path class="g" d="M858.2,709.427a33.979,33.979,0,0,1,7.526-2.461l3.563-.59a59,59,0,0,0-8.064-2.063c-2.25-.188-3.026.477-3.026.477Z" transform="translate(-321.204 3955.052)"/><path class="g" d="M858.948,699.627a15.1,15.1,0,0,1,4.872,0,22.312,22.312,0,0,0,3.747.621l-3.747-2.679-4-1.013Z" transform="translate(-321.284 3955.876)"/><path class="g" d="M862.678,690.021a9.586,9.586,0,0,1,3.147,1.361c1.876,1.16-1.35-4.271-1.35-4.271Z" transform="translate(-321.682 3956.883)"/><path class="g" d="M780.24,613.031s-1.671-1.159-3.172,2.217-3.75,7.69-3.75,7.69l-13.06,2.987s7.414-8.085,9.51-9.683,6.565-4.735,8.161-4.926,2.454.122,2.311,1.715" transform="translate(-310.755 3964.975)"/><path class="g" d="M801.207,635.708s3.825-9.473,4.824-9.48l1-.007s-.77-5.027-3.589-2.939-7.278,6.161-7.278,6.161Z" transform="translate(-314.585 3963.748)"/><path class="l" d="M773.7,644.83a31,31,0,0,0,3.1,1.587,8.012,8.012,0,0,0,3.194.775,13.75,13.75,0,0,0,3.313-.61c1.105-.325,2.215-.685,3.332-1.07a14.76,14.76,0,0,1-3.1,1.728,10.216,10.216,0,0,1-3.528.845,7.115,7.115,0,0,1-3.519-1.045,11.766,11.766,0,0,1-2.792-2.21" transform="translate(-312.189 3961.394)"/><path class="l" d="M800.669,646.018a9.738,9.738,0,0,1,1.821.281,3.309,3.309,0,0,0,1.574.109,3.086,3.086,0,0,0,1.4-.637,12.633,12.633,0,0,1,1.392-1.159,7.6,7.6,0,0,1-.892,1.646,2.909,2.909,0,0,1-1.744,1.029,3.192,3.192,0,0,1-1.035,0,3.351,3.351,0,0,1-.93-.331,9.729,9.729,0,0,1-1.587-.936" transform="translate(-315.066 3961.418)"/><path class="l" d="M785.217,657.689a25.468,25.468,0,0,0,3.667.316,10.111,10.111,0,0,0,3.521-.163,3.686,3.686,0,0,0,2-2.512,10.788,10.788,0,0,0,.387-3.486l.872-.02a21.765,21.765,0,0,0,.122,2.82,7.874,7.874,0,0,0,.693,2.648,1.563,1.563,0,0,0,.882.8l.295.06.343-.005a3.992,3.992,0,0,0,.676-.086,2.681,2.681,0,0,0,1.992-1.78,2.76,2.76,0,0,1-1.883,2.154,3.265,3.265,0,0,1-.745.176l-.38.034c-.136-.008-.28-.029-.421-.047a2.121,2.121,0,0,1-1.294-.977,7.4,7.4,0,0,1-.951-2.867,17.146,17.146,0,0,1-.2-2.959l.872-.02a10.443,10.443,0,0,1-.431,3.816,4.343,4.343,0,0,1-2.571,2.949,5.29,5.29,0,0,1-1.97.135l-1.844-.2a17.987,17.987,0,0,1-3.626-.783" transform="translate(-313.417 3960.653)"/><path class="m" d="M793.877,649.65h4.388a.715.715,0,0,1,.531,1.193L796.6,653.28a.712.712,0,0,1-1.061,0l-2.194-2.437a.715.715,0,0,1,.531-1.193" transform="translate(-314.265 3960.88)"/></g></svg>