<?xml version="1.0" encoding="utf-8"?>
<!-- Generator: Adobe Illustrator 25.0.1, SVG Export Plug-In . SVG Version: 6.00 Build 0)  -->
<svg version="1.1" id="Camada_1" xmlns="http://www.w3.org/2000/svg" xmlns:xlink="http://www.w3.org/1999/xlink" x="0px" y="0px"
	 viewBox="0 0 1920 4470.7" style="enable-background:new 0 0 1920 4470.7;" xml:space="preserve">
<style type="text/css">
	.st0{fill:#B2D389;}
	.st1{fill:none;stroke:#FFFFFF;stroke-width:3;}
	.st2{fill:#FFFFFF;}
</style>
<g transform="translate(0 -2286)">
	<rect y="2286" class="st0" width="1920" height="4470.7"/>
	<path class="st1" d="M1880.2,3414.2c-97.1,0.1-175.9-78.6-175.9-175.7c0-8.4,0.6-16.7,1.8-25c-147.7,65.1-320.2-1.8-385.3-149.5
		c-16.4-37.1-24.8-77.2-24.8-117.8c0-17.5,1.6-35,4.7-52.3c-1.6,0-3.1,0.1-4.7,0.1c-78.4,0-147.3-51.9-169-127.1
		c-44.6,105.8-166.6,155.5-272.4,110.9c-96.2-40.6-147.5-146.2-119.7-246.9c-93.3,27.2-190.9-26.4-218.1-119.6
		c-27.2-93.3,26.4-190.9,119.6-218.1c8.2-2.4,16.5-4.2,24.9-5.3l-1-1.7H1920v1113.6l0,10.1c0,0-0.1,0-0.2,0.1
		C1907.1,3412.7,1893.8,3414.2,1880.2,3414.2C1880.2,3414.2,1880.2,3414.2,1880.2,3414.2"/>
	<path class="st2" d="M1820.1,3152.7c-74.6,0-135.1-60.4-135.1-135c0-6.4,0.5-12.8,1.4-19.2c-113.4,50-246-1.4-296-114.9
		c-12.6-28.5-19.1-59.3-19.1-90.5c0-13.5,1.2-26.9,3.6-40.2c-1.2,0-2.4,0.1-3.6,0.1c-60.2,0-113.1-39.8-129.8-97.7
		c-34.3,81.3-128,119.4-209.3,85.2c-73.9-31.2-113.3-112.3-92-189.7c-71.6,20.9-146.7-20.3-167.5-91.9
		c-20.9-71.6,20.3-146.7,91.9-167.5c6.3-1.8,12.7-3.2,19.1-4.1l-0.8-1.3H1920l0,822.5c0,0,0,0,0,0
		C1895.3,3135.6,1859.7,3152.7,1820.1,3152.7C1820.1,3152.7,1820.1,3152.7,1820.1,3152.7"/>
</g>
</svg>
