<svg xmlns="http://www.w3.org/2000/svg" xmlns:xlink="http://www.w3.org/1999/xlink" width="1920" height="858" viewBox="0 0 1920 858"><defs><style>.a,.d{fill:#fff;}.a{stroke:#707070;}.b{fill:#b2d389;}.c{clip-path:url(#a);}.e{fill:none;stroke:#fff;}</style><clipPath id="a"><rect class="a" width="1920" height="852" transform="translate(0 646)"/></clipPath></defs><g transform="translate(0 -646)"><rect class="b" width="1920" height="858" transform="translate(0 646)"/><g class="c"><path class="d" d="M1992.3,1050.209a56.99,56.99,0,0,1-56.991-56.991,57.566,57.566,0,0,1,.575-8.045,94.676,94.676,0,0,1-132.867-86.6,95.323,95.323,0,0,1,1.513-16.938c-.5.011-1.006.038-1.513.038a57,57,0,0,1-54.756-41.193,67.373,67.373,0,0,1-127.034-44.075,56.987,56.987,0,1,1-23.821-111.15l-.333-.556h444.982l7.237,308.515a56.991,56.991,0,0,1-56.991,56.991" transform="translate(-107.76 -36.703)"/><path class="e" d="M2126.282,1160.5a74.15,74.15,0,0,1-73.44-84.661,123.245,123.245,0,0,1-172.961-112.728,124.089,124.089,0,0,1,1.97-22.049c-.656.015-1.309.05-1.97.05a74.206,74.206,0,0,1-71.279-53.623,87.7,87.7,0,0,1-165.367-57.374,74.183,74.183,0,1,1-31.01-144.69l-.433-.724H2191.05l9.421,401.611a74.188,74.188,0,0,1-74.189,74.189" transform="translate(-216.382 -38.703)"/><path class="d" d="M1992.3,1050.209a56.99,56.99,0,0,1-56.991-56.991,57.566,57.566,0,0,1,.575-8.045,94.676,94.676,0,0,1-132.867-86.6,95.323,95.323,0,0,1,1.513-16.938c-.5.011-1.006.038-1.513.038a57,57,0,0,1-54.756-41.193,67.373,67.373,0,0,1-127.034-44.075,56.987,56.987,0,1,1-23.821-111.15l-.333-.556h444.982l7.237,308.515a56.991,56.991,0,0,1-56.991,56.991" transform="translate(1980.67 2186.603) rotate(180)"/><path class="e" d="M2126.282,1160.5a74.15,74.15,0,0,1-73.44-84.661,123.245,123.245,0,0,1-172.961-112.728,124.089,124.089,0,0,1,1.97-22.049c-.656.015-1.309.05-1.97.05a74.206,74.206,0,0,1-71.279-53.623,87.7,87.7,0,0,1-165.367-57.374,74.183,74.183,0,1,1-31.01-144.69l-.433-.724H2191.05l9.421,401.611a74.188,74.188,0,0,1-74.189,74.189" transform="translate(2089.292 2188.603) rotate(180)"/></g></g></svg>