<svg xmlns="http://www.w3.org/2000/svg" xmlns:xlink="http://www.w3.org/1999/xlink" width="1920" height="1237" viewBox="0 0 1920 1237"><defs><style>.a{fill:#fff;stroke:#707070;}.b{clip-path:url(#a);}.c{fill:#f1c0a8;}.d{fill:#e6857b;}.e{fill:none;stroke:#e6857b;}</style><clipPath id="a"><rect class="a" width="1920" height="1237" transform="translate(0 2286)"/></clipPath></defs><g class="b" transform="translate(0 -2286)"><rect class="c" width="2101" height="1237" transform="translate(-72 2286)"/><path class="d" d="M1901.329,975.322a45.292,45.292,0,0,1-44.857-51.711,75.278,75.278,0,0,1-105.645-68.854,75.789,75.789,0,0,1,1.2-13.467c-.4.009-.8.03-1.2.03a45.325,45.325,0,0,1-43.537-32.753,53.569,53.569,0,0,1-101.006-35.044,45.311,45.311,0,1,1-18.941-88.377l-.264-.442H1940.89l5.754,245.3a45.314,45.314,0,0,1-45.315,45.315" transform="translate(-17.925 1602.887)"/><path class="d" d="M1992.3,1050.209a56.99,56.99,0,0,1-56.991-56.991,57.566,57.566,0,0,1,.575-8.045,94.676,94.676,0,0,1-132.867-86.6,95.323,95.323,0,0,1,1.513-16.938c-.5.011-1.006.038-1.513.038a57,57,0,0,1-54.756-41.193,67.373,67.373,0,0,1-127.034-44.075,56.987,56.987,0,1,1-23.821-111.15l-.333-.556h444.982l7.237,308.515a56.991,56.991,0,0,1-56.991,56.991" transform="translate(2026.03 4201.56) rotate(180)"/><path class="e" d="M2007.86,1063.018a58.957,58.957,0,0,1-58.393-67.315,97.994,97.994,0,0,1-137.524-89.632,98.66,98.66,0,0,1,1.566-17.531c-.521.012-1.041.039-1.566.039a59,59,0,0,1-56.675-42.636,69.734,69.734,0,0,1-131.485-45.619,58.984,58.984,0,1,1-24.656-115.045l-.344-.576h460.575l7.49,319.326a58.988,58.988,0,0,1-58.989,58.989" transform="translate(-104.292 1601.297)"/><path class="e" d="M2126.282,1160.5a74.15,74.15,0,0,1-73.44-84.661,123.245,123.245,0,0,1-172.961-112.728,124.089,124.089,0,0,1,1.97-22.049c-.656.015-1.309.05-1.97.05a74.206,74.206,0,0,1-71.279-53.623,87.7,87.7,0,0,1-165.367-57.374,74.183,74.183,0,1,1-31.01-144.69l-.433-.724H2191.05l9.421,401.611a74.188,74.188,0,0,1-74.189,74.189" transform="translate(2134.652 4203.56) rotate(180)"/></g></svg>