<svg xmlns="http://www.w3.org/2000/svg" width="53.567" height="48.621" viewBox="0 0 53.567 48.621">
  <g id="Grupo_10720" data-name="Grupo 10720" transform="translate(0.5 0.508)">
    <path id="Caminho_2601" data-name="Caminho 2601" d="M-182.221,436v1.438a1.387,1.387,0,0,0-.093.23,5.539,5.539,0,0,1-4.342,4.536,19.2,19.2,0,0,1-2.368.431c-.419.051-.481.227-.479.591.013,2.293.017,4.586,0,6.878a6.977,6.977,0,0,1-.175,1.624,5.645,5.645,0,0,1-5.726,4.286q-14.806,0-29.613,0c-1.386,0-2.772.023-4.157-.007a5.635,5.635,0,0,1-5.6-5.649q-.03-11.241,0-22.483a4.982,4.982,0,0,1,2.318-4.449,1.706,1.706,0,0,0,.838-2.2,5.568,5.568,0,0,1,4.473-6.683c2.649-.518,5.313-.958,7.972-1.428q13.048-2.3,26.1-4.605a5.623,5.623,0,0,1,6.762,4.585c1.129,6.134,2.181,12.282,3.27,18.424C-182.778,433.018-182.5,434.51-182.221,436Zm-10.361,3.418H-231.7v.5q0,5.082,0,10.163a2.613,2.613,0,0,0,2.838,2.846q16.73,0,33.461,0a2.594,2.594,0,0,0,2.814-2.811q0-4.774,0-9.547Zm3.085.167c.738-.133,1.428-.237,2.107-.384a2.54,2.54,0,0,0,2.025-3.02q-.582-3.334-1.169-6.666-1.395-7.928-2.8-15.854a2.537,2.537,0,0,0-3.05-2.117c-4.293.747-8.582,1.513-12.874,2.268q-10.6,1.865-21.2,3.728a2.494,2.494,0,0,0-2.182,2.468,19.512,19.512,0,0,0,.292,2.253h.727q16.039,0,32.079.006a7.391,7.391,0,0,1,1.579.142,5.583,5.583,0,0,1,4.458,5.528c.023,3.662.006,7.324.007,10.986Zm-3.109-7.171h-39.063v3.843h39.063Zm-.009-3.175a12,12,0,0,0-.014-1.764,2.583,2.583,0,0,0-2.786-2.127q-16.724,0-33.448,0a4.051,4.051,0,0,0-.562.034,2.481,2.481,0,0,0-2.21,2.1,11.771,11.771,0,0,0-.015,1.753Z" transform="translate(234.787 -408.411)" stroke="#e5e5e5" stroke-width="1"/>
    <path id="Caminho_2602" data-name="Caminho 2602" d="M-183.685,690.839c-1.094,0-2.187.007-3.281,0a1.561,1.561,0,0,1-1.724-1.554,1.572,1.572,0,0,1,1.749-1.533q3.306-.008,6.613,0a1.585,1.585,0,0,1,1.731,1.559,1.566,1.566,0,0,1-1.705,1.527C-181.43,690.847-182.557,690.839-183.685,690.839Z" transform="translate(195.01 -649.443)" stroke="#e5e5e5" stroke-width="1"/>
  </g>
</svg>
