<svg xmlns="http://www.w3.org/2000/svg" width="653.66" height="699.844" viewBox="0 0 653.66 699.844"><defs><style>.a{fill:#efefef;}.b{fill:#b2d389;}.c{fill:#8cb54e;}.d{fill:#15351a;}.e{fill:#f5f5f5;}</style></defs><g transform="translate(-69 -3830.143)"><path class="a" d="M118,235.25c56.263-27.5,78.324-10.85,104.036-40.535C269.075,140.405,227.1,47.9,258.828,13.864c55-58.987,310.846,79.739,310.84,236.977,0,139.312-200.852,257.121-359.052,243.213C113.329,485.5.948,424.391.006,361.533-.774,309.532,74.717,256.4,118,235.25Z" transform="translate(254.466 4529.987) rotate(-109)"/><g transform="translate(303.821 4062.051)"><rect class="b" width="234.001" height="141.101" rx="6.46" transform="translate(0.844 6.017)"/><path class="c" d="M334.19,451.8l102.532,67.593a13.171,13.171,0,0,0,14.621.056l104.165-67.593c12.786-8.3,7.518-30.15-7.268-30.15h-206.7C326.81,421.7,321.5,443.43,334.19,451.8Z" transform="translate(-327.047 -421.701)"/><path class="d" d="M771.337,679.634a19.107,19.107,0,0,1-11.715-5.1,31.845,31.845,0,0,1-7.759-11.524c-1.083-2.531-1.992-5.122-2.9-7.711a1.325,1.325,0,0,0-2.467,0,69.477,69.477,0,0,1-5.107,10.729,26.049,26.049,0,0,1-6.273,7.824c-.115.088-.232.173-.35.257a18.594,18.594,0,0,1-10.1,2.4c-1.418-.067-1.772,2.086-.34,2.324a27,27,0,0,1,20.888,17.345,21.574,21.574,0,0,1,1.181,7.575c-.037,1.4,2.035,1.511,2.513.315,3.151-7.892,6.8-16.686,15.51-20.619A16.221,16.221,0,0,1,771.337,682,1.184,1.184,0,1,0,771.337,679.634Z" transform="translate(-520.269 -535.164)"/><path class="d" d="M819.3,568.446a12.709,12.709,0,0,1-8.322-4.247,27.173,27.173,0,0,1-5.512-9.6c-.769-2.108-1.415-4.264-2.058-6.42a.9.9,0,0,0-1.752,0,62.71,62.71,0,0,1-3.628,8.933,21.445,21.445,0,0,1-4.456,6.515c-.082.074-.165.145-.249.214a11.684,11.684,0,0,1-7.171,2c-1.008-.055-1.259,1.737-.242,1.935,6.925,1.346,12.73,7.22,14.839,14.442a20.806,20.806,0,0,1,.838,6.307.906.906,0,0,0,1.785.262c2.238-6.572,4.829-13.894,11.018-17.169a10.1,10.1,0,0,1,4.909-1.209C820.473,570.437,820.464,568.5,819.3,568.446Z" transform="translate(-550.415 -483.017)"/></g><g transform="translate(203.863 3986.551) rotate(-17)"><rect class="b" width="98.355" height="59.307" rx="6.46" transform="translate(0.355 2.529)"/><path class="c" d="M3,12.649,46.1,41.06a5.536,5.536,0,0,0,6.145.023l43.783-28.41C101.4,9.186,99.186,0,92.971,0H6.093C-.1,0-2.331,9.133,3,12.649Z" transform="translate(0 0)"/></g><g transform="translate(550.777 4257.711) rotate(23)"><rect class="b" width="66.93" height="40.358" rx="6.46" transform="translate(0.241 1.721)"/><path class="c" d="M2.043,8.608,31.369,27.941a3.767,3.767,0,0,0,4.182.016L65.345,8.624C69,6.251,67.5,0,63.266,0H4.146C-.068,0-1.587,6.215,2.043,8.608Z" transform="translate(0 0)"/></g><path class="e" d="M1447.361,748.568c-4.462-24.967-27.073-42.867-52.556-36.323-21.187,5.44-37.088,23.384-46.7,43.136-6.034-15.034-14.562-28.836-27.9-38.868-16.276-12.242-49.2-21.813-53.561,6.551-7.308,47.552,27.166,89.63,57.966,124.031.02,5.462,3.913,11.11,10.121,11.241.589.655,1.182,1.312,1.764,1.961,6.987,7.779,17.353.879,17.871-7.349a187.97,187.97,0,0,0,60.944-35.526c19.662-17.155,36.944-41.447,32.046-68.854m-20.656,14.3c-2.987,19.873-20.507,35.753-35.839,47.051a166.989,166.989,0,0,1-48.917,24.7c-23.25-25.675-48.425-54.555-54.131-88.865a64.4,64.4,0,0,1-.793-13.788c.1-2.087.509-4.14.635-6.215a4.747,4.747,0,0,0,.641-.085c2.259,1.6,8.114,1.619,11.019,2.921a45.066,45.066,0,0,1,11.05,7.189c14.22,12.45,20.161,31.1,24.766,48.807,2.648,10.18,15.373,9.22,19.571,2.206a9.729,9.729,0,0,0,6.811-7.092c5.291-18.78,18.461-41.837,38.947-46.916,17.878-4.432,28.6,14.382,26.239,30.092" transform="matrix(0.875, -0.485, 0.485, 0.875, -1306.675, 4388.183)"/></g></svg>