<svg xmlns="http://www.w3.org/2000/svg" width="47.738" height="47.904" viewBox="0 0 47.738 47.904">
  <path id="Caminho_2617" data-name="Caminho 2617" d="M275.364,891.928H234.081V864.351h-2.74V853.393h9.027c-.079-.18-.13-.3-.187-.423a5.478,5.478,0,0,1,9.662-5.133,20.455,20.455,0,0,0,3.262,3.8c.521.481,1.074.929,1.6,1.383a24.288,24.288,0,0,0,5.2-5.6,5.461,5.461,0,0,1,9.745,4.4c-.121.525-.337,1.028-.527,1.6h8.957v10.951h-2.714Zm-24.771-27.544H236.858v24.78h13.735Zm8.272-.013v24.78H272.6v-24.78Zm-8.274-8.207H234.118v5.424h16.474Zm5.469,33v-33h-2.684v33Zm2.793-27.588h16.474v-5.423H258.853Zm-7.888-8.2A26.133,26.133,0,0,1,247.2,848.9a1.551,1.551,0,0,0-.244-.27,2.73,2.73,0,0,0-4.492,2.619,2.613,2.613,0,0,0,2.436,2.116C246.878,853.421,248.854,853.377,250.966,853.377Zm7.617.017c1.491,0,2.948,0,4.4,0,.517,0,1.037.023,1.551-.022a2.724,2.724,0,1,0-2.351-4.4c-.433.548-.8,1.153-1.239,1.691C260.194,851.572,259.4,852.452,258.583,853.393Z" transform="translate(-230.841 -844.524)" stroke="#e5e5e5" stroke-width="1"/>
</svg>
