<svg xmlns="http://www.w3.org/2000/svg" xmlns:xlink="http://www.w3.org/1999/xlink" width="639" height="251" viewBox="0 0 639 251"><defs><style>.a{fill:#fff;stroke:#707070;}.b{clip-path:url(#a);}.c{fill:#75aa2d;}</style><clipPath id="a"><rect class="a" width="639" height="251" transform="translate(1281 1530)"/></clipPath></defs><g class="b" transform="translate(-1281 -1530)"><path class="c" d="M2284.35,971.051c-64.852-33.484-134.243-58.146-206.4-69.863-59.9-9.727-120.911-10.516-181.144-3.457-52.272,6.121-103.618,17.947-154.143,32.488-42.1,12.118-83.557,26.433-125.818,37.984-16.772,4.582-33.742,8.719-50.974,11.163-25.441,3.611-50.531,1.707-74.248-9a128.617,128.617,0,0,1-18.026-10.033c25.453-12.574,49.112-33.64,59.516-59.882a73.179,73.179,0,0,0,3.023-42.48c-1.8-7.8-5.769-15.537-13.276-19.135-12.939-6.205-28.99,1.07-40.327,7.626a75.191,75.191,0,0,0-11.364,8.078,83.888,83.888,0,0,0-16.449-12.1c-9.337-5.371-20.651-9.889-31.617-8.316-11.041,1.582-18.131,10.267-20.947,20.654-3.662,13.512.612,27.645,6.677,39.779,7.143,14.291,17.234,27.072,27.793,38.978,8.365,9.429,17.156,18.308,27.1,25.9-32.589,13.67-69.523,12.6-104.214,10.5q-29.982-1.81-59.795-5.638c-20.113-2.582-40.054-6.523-60.219-8.678-32.381-3.463-67.516-.045-91.045,24.991-9.053,9.631-14.816,21.5-15.934,34.718-.267,3.151,4.644,3.134,4.911,0,1.44-17,11.923-31.3,25.651-40.859,15.782-10.984,34.469-15.046,53.48-15.206,21.842-.183,43.363,4.214,64.874,7.414q31.686,4.716,63.649,7.182c38.8,2.976,80.572,5.817,117.572-8.688q2.839-1.111,5.667-2.372,2.584,1.8,5.282,3.485c25.353,15.776,54.34,22.032,83.91,19.01,39.538-4.04,78.007-17.045,115.757-28.813,49.92-15.56,99.89-31.025,151.1-41.837,60.673-12.806,122.727-19.1,184.739-15.9,73.858,3.8,146.449,21.167,214.709,49.459,19.733,8.18,39.068,17.287,58.047,27.084,2.8,1.45,5.291-2.787,2.479-4.239m-813.372-109.9a24.731,24.731,0,0,1,5.059,8.363c2.4,7.262,1.238,18.16-5.433,22.9-6.552,4.654-10.815-1.885-10.618-8,.275-8.505,4.933-16.917,10.992-23.264m-50.344,43.94c-7.942-12.091-15.541-26.5-14.894-41.4.524-12.073,7.182-24.262,20.312-24.929,11.2-.567,22.434,5.124,31.461,11.218a86.866,86.866,0,0,1,10.166,7.807c-8.289,8.275-14.239,18.862-12.362,30.532,1.707,10.624,12.939,13.771,20.4,6.178,7.8-7.936,8.4-22.865,2.306-31.917a47.292,47.292,0,0,0-3.638-4.652c.859-.735,1.731-1.44,2.615-2.087,9.339-6.819,21.136-13.266,32.823-14.219,22.8-1.863,24.734,26.308,22.5,42.919C1528,916.6,1498.522,942.3,1471.161,956.05c-.745.376-1.507.692-2.255,1.049-19.251-13.855-35.474-32.531-48.272-52.013" transform="translate(210.952 727.383)"/></g></svg>