<svg xmlns="http://www.w3.org/2000/svg" width="414.663" height="390.138" viewBox="0 0 414.663 390.138"><defs><style>.a{fill:#f5f5f5;}</style></defs><path class="a" d="M1596.911,784.805c-8.134-45.515-49.356-78.148-95.813-66.219-38.624,9.917-67.613,42.629-85.133,78.639-11-27.407-26.546-52.568-50.857-70.858-29.672-22.318-89.7-39.766-97.644,11.942-13.323,86.689,49.524,163.4,105.675,226.115.035,9.958,7.134,20.253,18.451,20.493,1.074,1.194,2.155,2.391,3.216,3.575,12.738,14.181,31.636,1.6,32.581-13.4a342.674,342.674,0,0,0,111.1-64.766c35.845-31.273,67.351-75.559,58.421-125.523m-37.656,26.077c-5.445,36.23-37.385,65.18-65.335,85.777a304.427,304.427,0,0,1-89.177,45.021c-42.387-46.806-88.281-99.456-98.683-162.006a117.406,117.406,0,0,1-1.446-25.136c.19-3.8.928-7.548,1.158-11.33a8.664,8.664,0,0,0,1.168-.155c4.118,2.918,14.792,2.951,20.088,5.326a82.154,82.154,0,0,1,20.144,13.106c25.925,22.7,36.754,56.7,45.15,88.977,4.827,18.558,28.025,16.808,35.679,4.021,5.552-1.582,10.379-5.688,12.417-12.929,9.645-34.237,33.655-76.271,71-85.531,32.593-8.079,52.141,26.22,47.835,54.859" transform="translate(-825.128 -1111.316) rotate(21)"/></svg>