<svg id="Grupo_353" data-name="Grupo 353" xmlns="http://www.w3.org/2000/svg" width="31.984" height="31.974" viewBox="0 0 31.984 31.974">
  <path id="Caminho_190" data-name="Caminho 190" d="M-423.646-376.69a8.741,8.741,0,0,0-4.6-7.928,8.5,8.5,0,0,0-4.352-1.122l-3.043,0c-3.608,0-7.339-.008-11.009.006a8.952,8.952,0,0,0-5.28,1.7,9.062,9.062,0,0,0-3.248,4.514,8.434,8.434,0,0,0-.272,1.188c-.03.17-.062.347-.1.516-.015.071-.028.142-.041.213l-.023.123v15.458l.005.03c.026.144.049.293.071.438a8.334,8.334,0,0,0,.194,1,8.825,8.825,0,0,0,6.984,6.626c.229.052.458.084.68.116.1.014.2.028.3.044l.027,0H-431.9l.03-.005c.144-.026.294-.049.439-.071a8.341,8.341,0,0,0,1-.195,8.786,8.786,0,0,0,6.616-6.976,8.345,8.345,0,0,0,.167-1.8l0-1.146C-423.631-368.138-423.619-372.449-423.646-376.69Zm-10.942,20.383c-3.921.011-7.976.022-11.962-.007a6.27,6.27,0,0,1-5.966-3.788,6.114,6.114,0,0,1-.563-2.723v-.678c0-4.322-.007-8.792,0-13.187a6.535,6.535,0,0,1,1.388-4.105,6.423,6.423,0,0,1,3.67-2.256,7.216,7.216,0,0,1,1.532-.151c1.066-.008,2.144-.01,3.211-.01h10.563a6.279,6.279,0,0,1,3.814,1.169,6.276,6.276,0,0,1,2.724,5.306c.018,4.5.019,9.192,0,13.955a6.473,6.473,0,0,1-1.4,4.08,6.44,6.44,0,0,1-3.67,2.24,6.873,6.873,0,0,1-1.471.147Z" transform="translate(455.613 385.748)" fill="#6c6c6c"/>
  <path id="Caminho_191" data-name="Caminho 191" d="M-347.958-290.649a9.051,9.051,0,0,0-6.315-2.674,8.681,8.681,0,0,0-6.231,2.5,8.989,8.989,0,0,0-2.735,6.391,8.715,8.715,0,0,0,2.557,6.273,9.05,9.05,0,0,0,6.315,2.674h.144a8.683,8.683,0,0,0,6.087-2.5,8.989,8.989,0,0,0,2.735-6.391A8.715,8.715,0,0,0-347.958-290.649Zm.02,6.249a6.4,6.4,0,0,1-6.374,6.376h-.013a6.334,6.334,0,0,1-4.506-1.87,6.333,6.333,0,0,1-1.872-4.517,6.4,6.4,0,0,1,6.374-6.376,6.34,6.34,0,0,1,4.518,1.869A6.334,6.334,0,0,1-347.938-284.4Z" transform="translate(370.308 300.395)" fill="#6c6c6c"/>
  <path id="Caminho_192" data-name="Caminho 192" d="M-163.458-328.18h.033a2.956,2.956,0,0,0,2.927-2.967,2.946,2.946,0,0,0-.891-2.09,2.9,2.9,0,0,0-2.038-.838h-.032a2.965,2.965,0,0,0-2.1.906,2.874,2.874,0,0,0-.834,2.056A3,3,0,0,0-163.458-328.18Zm-.4-2.954a.4.4,0,0,1,.123-.281.419.419,0,0,1,.291-.123h0a.4.4,0,0,1,.283.123.408.408,0,0,1,.117.294.426.426,0,0,1-.4.4.414.414,0,0,1-.287-.127A.412.412,0,0,1-163.853-331.133Z" transform="translate(188.523 338.029)" fill="#6c6c6c"/>
</svg>
