<svg id="Grupo_352" data-name="Grupo 352" xmlns="http://www.w3.org/2000/svg" width="31.968" height="31.974" viewBox="0 0 31.968 31.974">
  <path id="Caminho_189" data-name="Caminho 189" d="M-673.86,159.838h-25.349a.857.857,0,0,0-.144-.052,3.724,3.724,0,0,1-3.163-3.761q-.007-12.173.007-24.345a4.139,4.139,0,0,1,.206-1.284,3.717,3.717,0,0,1,3.661-2.531q12.107,0,24.215,0c.083,0,.167,0,.25,0a3.729,3.729,0,0,1,2.864,1.486,4.312,4.312,0,0,1,.761,1.82v25.354c-.02.069-.045.136-.06.206a3.7,3.7,0,0,1-2.594,2.935C-673.418,159.742-673.642,159.783-673.86,159.838Zm-7.542-2.5h6.869a1.3,1.3,0,0,0,1.485-1.491q0-12,0-24.01a1.291,1.291,0,0,0-1.467-1.477h-24.036a1.291,1.291,0,0,0-1.469,1.476q0,12.005,0,24.01a1.3,1.3,0,0,0,1.484,1.492h13.231V147.146h-3.708v-3.865h3.729c0-.147,0-.26,0-.374,0-.864-.021-1.729.016-2.591a5.709,5.709,0,0,1,4.311-5.272,17.409,17.409,0,0,1,3.916-.176c.015,0,.031.024.044.034v3.827h-.321c-.739,0-1.478-.011-2.216,0a1.755,1.755,0,0,0-1.835,1.573c-.076.979-.017,1.969-.017,2.986h4.467l-.639,3.874H-681.4Z" transform="translate(702.519 -127.864)" fill="#6c6c6c"/>
</svg>
