<svg xmlns="http://www.w3.org/2000/svg" width="35.42" height="30.961" viewBox="0 0 35.42 30.961"><defs><style>.a{fill:none;stroke-miterlimit:10;}.b,.c{stroke:none;}.c{fill:#fff;}</style></defs><g class="a" transform="translate(2 2)"><path class="b" d="M22.551,25.369l-6.37-4.834-4.64,3.935.008-.167-.054.075L9.479,18.909,25.259,4.67l-17,10.97L.647,13.069A.95.95,0,0,1,.614,11.28L30.13.064a.951.951,0,0,1,1.26,1.12L25.614,24.292a1.944,1.944,0,0,1-3.063,1.077Z"/><path class="c" d="M 23.72111511230469 25.76594161987305 C 24.56900978088379 25.76594161987305 25.38432121276855 25.20969581604004 25.61382675170898 24.29168128967285 L 31.39028739929199 1.183541893959045 C 31.57694625854492 0.4384421110153198 30.84811019897461 -0.2090684771537781 30.130126953125 0.06357192248106003 L 0.6134968400001526 11.27955150604248 C -0.2206731736660004 11.59634208679199 -0.1989831775426865 12.78370189666748 0.6468068361282349 13.06872177124023 L 8.258127212524414 15.64094161987305 L 25.25851631164551 4.670452117919922 L 9.478786468505859 18.90946197509766 L 11.49411678314209 24.37766265869141 L 11.54809665679932 24.30269241333008 L 11.54058647155762 24.4698314666748 L 16.18087768554688 20.53525161743164 L 22.55055618286133 25.36906242370605 C 22.90857696533203 25.64056205749512 23.31851768493652 25.76593208312988 23.72104644775391 25.76594161987305 C 23.72109794616699 25.76594161987305 23.7210636138916 25.76594161987305 23.72111511230469 25.76594161987305 M 9.336787223815918 28.96065139770508 L 9.523143768310547 24.81322860717773 L 7.134176731109619 18.33126258850098 L 7.90739631652832 17.63353729248047 L 0.00648682564496994 14.96345233917236 C -1.187533140182495 14.5610818862915 -1.975553154945374 13.48573207855225 -1.999463200569153 12.22443199157715 C -2.023383140563965 10.96271228790283 -1.276443123817444 9.857921600341797 -0.09655317664146423 9.409841537475586 L 29.41970634460449 -1.805998086929321 C 29.75888633728027 -1.934788107872009 30.11236763000488 -1.999998092651367 30.47079658508301 -1.999998092651367 C 31.37020683288574 -1.999998092651367 32.23973846435547 -1.573828101158142 32.79680633544922 -0.8599880933761597 C 33.35833740234375 -0.1404380798339844 33.55279541015625 0.7815419435501099 33.33033752441406 1.669551968574524 L 27.55412673950195 24.77671241760254 C 27.11409759521484 26.53675270080566 25.53791618347168 27.76594161987305 23.72111701965332 27.76594161987305 L 23.72106742858887 27.76594161987305 C 22.857666015625 27.76592254638672 22.0350170135498 27.48815155029297 21.34206771850586 26.96266174316406 L 16.25026512145996 23.09860420227051 L 12.73094654083252 26.08269309997559 L 10.91865634918213 28.59969139099121 L 10.64337825775146 27.85277366638184 L 9.336787223815918 28.96065139770508 Z"/></g></svg>