<svg xmlns="http://www.w3.org/2000/svg" width="29.964" height="39.466" viewBox="0 0 29.964 39.466"><defs><style>.a{fill:#fff;}</style></defs><g transform="translate(0 0)"><path class="a" d="M380.352,288.186a.849.849,0,0,0-.6-.247H351.477a.842.842,0,0,0-.843.842v37.78a.842.842,0,0,0,.843.843H374.6a.843.843,0,0,0,.594-.245l2.6-2.581,0,0,2.553-2.564a.846.846,0,0,0,.246-.595V288.782A.849.849,0,0,0,380.352,288.186Zm-5.958,37.564v-4.332h4.489Zm4.519-22v15.987h-5.362a.844.844,0,0,0-.843.843v5.145H352.319V289.624h26.594v14.121Z" transform="translate(-350.634 -287.939)"/><rect class="a" width="17.376" height="2.502" transform="translate(7.741 10.191)"/><rect class="a" width="20.34" height="2.502" transform="translate(4.778 14.34)"/><rect class="a" width="17.376" height="2.502" transform="translate(7.741 18.502)"/><rect class="a" width="20.34" height="2.502" transform="translate(4.778 22.65)"/></g></svg>