<svg xmlns="http://www.w3.org/2000/svg" width="35.948" height="36.018" viewBox="0 0 35.948 36.018"><defs><style>.a{fill:none;stroke:#fff;stroke-width:2px;}</style></defs><path class="a" d="M279.968,153.228s-1.34-1.609-2.823-.5c-1.107.826-3.092,2.664-3.571,3.112a39.8,39.8,0,0,1-5.287-3.388,27.814,27.814,0,0,1-5.878-7.033l-.763-1.437c.265-.285,2.3-2.464,3.179-3.647,1.109-1.483-.5-2.821-.5-2.821s-4.519-4.521-5.55-5.417a2.215,2.215,0,0,0-2.214-.4c-2.164,1.4-4.408,2.616-4.541,8.462,0,5.476,4.151,11.119,8.642,15.492,4.5,4.934,10.682,9.884,16.656,9.875,5.848-.131,7.061-2.375,8.459-4.539a2.212,2.212,0,0,0-.4-2.214c-.9-1.031-5.417-5.548-5.417-5.548Zm0,0" transform="translate(-251.026 -130.509)"/></svg>