<svg xmlns="http://www.w3.org/2000/svg" width="31.643" height="31.72" viewBox="0 0 31.643 31.72"><defs><style>.a,.b{fill:#fff;}.b{fill-rule:evenodd;}</style></defs><path class="a" d="M297.259,400.79l2.274-8.485a15.7,15.7,0,1,1,6.254,6.2Zm8.953-5.464.537.32a12.748,12.748,0,1,0-4.361-4.321l.329.541-1.269,4.737Z" transform="translate(-297.259 -369.07)"/><path class="b" d="M320.033,387.9a2.638,2.638,0,0,0-2.244-.506c-.583.238-.955,1.151-1.332,1.617a.559.559,0,0,1-.723.156,10.167,10.167,0,0,1-5.072-4.344.623.623,0,0,1,.079-.85,3.42,3.42,0,0,0,.921-1.5,3.272,3.272,0,0,0-.412-1.771,4.2,4.2,0,0,0-1.307-1.97,1.791,1.791,0,0,0-1.945.289,3.95,3.95,0,0,0-1.369,3.129,4.447,4.447,0,0,0,.123.992,8.252,8.252,0,0,0,.952,2.195,17.564,17.564,0,0,0,.994,1.512,15.34,15.34,0,0,0,4.312,4,13.041,13.041,0,0,0,2.689,1.279,5.977,5.977,0,0,0,3.13.494,3.792,3.792,0,0,0,2.838-2.111,1.83,1.83,0,0,0,.131-1.078C321.638,388.7,320.633,388.257,320.033,387.9Z" transform="translate(-298.229 -370.052)"/></svg>