<svg xmlns="http://www.w3.org/2000/svg" width="40.54" height="40.4" viewBox="0 0 40.54 40.4">
  <g id="Grupo_18" data-name="Grupo 18" transform="translate(0 0)">
    <path id="Caminho_47" data-name="Caminho 47" d="M22.67,42.907c.131-3.362.131-6.711.406-10.034A10.465,10.465,0,0,1,32.965,23c4.369-.3,8.778-.275,13.173-.275a53.635,53.635,0,0,1,7.666.406,10.465,10.465,0,0,1,9.157,9.681,42.026,42.026,0,0,1,.249,4.448q0,7.13-.118,14.22a12.271,12.271,0,0,1-1.151,5.233,10.138,10.138,0,0,1-8.9,6.109c-4.356.3-8.739.288-13.082.288a56.606,56.606,0,0,1-7.731-.406A10.374,10.374,0,0,1,23.1,52.98C22.8,49.631,22.788,46.256,22.67,42.907Zm20.29-16.64v.092H38.42c-1.517,0-3.061.065-4.592.17-4.265.3-7.064,2.93-7.169,7.195q-.262,9.157,0,18.315a6.92,6.92,0,0,0,6.7,7.156h.484q9.157.262,18.249,0A6.92,6.92,0,0,0,59.3,52.536a3.663,3.663,0,0,0,0-.536q.249-9.157,0-18.315c-.1-4.225-2.9-6.894-7.143-7.143-3.061-.17-6.135-.183-9.157-.275Z" transform="translate(-22.67 -22.713)" fill="#fff"/>
    <path id="Caminho_48" data-name="Caminho 48" d="M51.008,40.581A10.374,10.374,0,1,1,40.634,30.22h0A10.348,10.348,0,0,1,51.008,40.581ZM40.66,47.318a6.737,6.737,0,1,0-6.75-6.711h0a6.737,6.737,0,0,0,6.75,6.7Z" transform="translate(-20.331 -20.399)" fill="#fff"/>
    <path id="Caminho_49" data-name="Caminho 49" d="M49.417,30.586A2.414,2.414,0,1,1,47.076,28.1h0a2.407,2.407,0,0,1,2.342,2.486Z" transform="translate(-15.915 -21.053)" fill="#fff"/>
  </g>
</svg>
