<svg id="Grupo_334" data-name="Grupo 334" xmlns="http://www.w3.org/2000/svg" width="31.977" height="31.974" viewBox="0 0 31.977 31.974">
  <path id="Caminho_184" data-name="Caminho 184" d="M2090.217,2158.541a15.917,15.917,0,0,0-13.426-13c-.378-.058-.76-.093-1.141-.139h-2c-.605.084-1.215.147-1.816.255a15.811,15.811,0,0,0-11.233,23.3.684.684,0,0,1,.052.46c-.686,2.538-1.386,5.073-2.082,7.608-.028.1-.053.2-.092.347.285-.068.543-.126.8-.192,2.454-.64,4.906-1.285,7.363-1.915a.8.8,0,0,1,.521.056,16.026,16.026,0,0,0,22.383-8.736,15.146,15.146,0,0,0,.858-4.046,2.171,2.171,0,0,1,.054-.272v-2C2090.378,2159.692,2090.316,2159.113,2090.217,2158.541Zm-12.822,15.533a13.093,13.093,0,0,1-9.809-1.65.682.682,0,0,0-.578-.089c-1.456.388-2.915.763-4.374,1.141-.087.022-.177.036-.314.064.145-.537.277-1.034.414-1.53.28-1.012.558-2.024.847-3.033a.572.572,0,0,0-.085-.519,12.944,12.944,0,0,1-2.195-7.394,13.241,13.241,0,1,1,16.095,13.01Z" transform="translate(-2058.479 -2145.399)" fill="#6c6c6c"/>
  <path id="Caminho_185" data-name="Caminho 185" d="M2210.2,2301.292c-.993-.432-1.981-.874-2.973-1.311a2.2,2.2,0,0,0-.266-.089.6.6,0,0,0-.808.26q-.55.7-1.118,1.383c-.33.4-.5.433-.976.242a10.812,10.812,0,0,1-5.334-4.6c-.259-.431-.243-.556.071-.946s.615-.785.911-1.185a.841.841,0,0,0,.066-.911c-.288-.645-.549-1.3-.823-1.953-.161-.383-.317-.769-.492-1.146-.11-.24-.263-.469-.56-.486a11.027,11.027,0,0,0-1.122-.006,1.185,1.185,0,0,0-.926.454,9.712,9.712,0,0,0-1.056,1.606,4.614,4.614,0,0,0,.2,3.979,15.271,15.271,0,0,0,2.263,3.313,14.632,14.632,0,0,0,6.53,4.839,7.861,7.861,0,0,0,2.974.7,4.17,4.17,0,0,0,2.337-.672,3.069,3.069,0,0,0,1.522-2.817A.628.628,0,0,0,2210.2,2301.292Z" transform="translate(-2186.482 -2282.046)" fill="#6c6c6c"/>
</svg>
