<svg xmlns="http://www.w3.org/2000/svg" width="43.795" height="34.074" viewBox="0 0 43.795 34.074"><defs><style>.a{fill:#fff;stroke:#fff;stroke-width:0.3px;}</style></defs><path class="a" d="M65.92,36.277H35.357a3.887,3.887,0,0,0-1.709.367,5.013,5.013,0,0,0-1.525.975h0a4.738,4.738,0,0,0-.976,1.465,4.36,4.36,0,0,0-.366,1.768h0v13.3h0a4.361,4.361,0,0,0,.366,1.769h0a3.88,3.88,0,0,0,.976,1.465h0a4.082,4.082,0,0,0,1.525.975,3.9,3.9,0,0,0,1.709.366h3.111l-.367,1.16v.061l-1.525,5.612,7.93-6.649.549-.184H65.92a3.885,3.885,0,0,0,1.707-.366h0a3.641,3.641,0,0,0,1.525-.975h0a4.74,4.74,0,0,0,.976-1.465,4.352,4.352,0,0,0,.367-1.769v-13.3a4.351,4.351,0,0,0-.367-1.768,4.715,4.715,0,0,0-.976-1.465h0a4.352,4.352,0,0,0-1.525-.975,3.877,3.877,0,0,0-1.707-.367Zm-30.563-1.89H65.92a7.023,7.023,0,0,1,2.5.488h0a7.936,7.936,0,0,1,2.014,1.4l.061.061a6.254,6.254,0,0,1,1.4,2.075h0a6.459,6.459,0,0,1,.488,2.44v13.3a7.033,7.033,0,0,1-.488,2.5h0a7.905,7.905,0,0,1-1.4,2.012l-.061.061a6.627,6.627,0,0,1-2.014,1.4,7.023,7.023,0,0,1-2.5.488h-20.5l-7.869,6.588h0l-.123.061h0a4.079,4.079,0,0,1-.67.427h0l-.122.061v.367L35.6,67.878a1.006,1.006,0,0,1-.55-.306h0a.953.953,0,0,1-.366-.488c-.061-.122-.061-.183-.122-.305h0V65.8h0c.061-.123.061-.306.122-.489l1.281-4.7h-.609a6.445,6.445,0,0,1-2.441-.488,8.559,8.559,0,0,1-2.135-1.4h0a8.583,8.583,0,0,1-1.4-2.134,6.436,6.436,0,0,1-.488-2.441v-13.3a6.435,6.435,0,0,1,.488-2.44,7.311,7.311,0,0,1,1.4-2.075h0a7.366,7.366,0,0,1,2.135-1.463,6.445,6.445,0,0,1,2.441-.488Z" transform="translate(-28.74 -34.237)"/></svg>