<svg xmlns="http://www.w3.org/2000/svg" width="347.228" height="347.072" viewBox="0 0 347.228 347.072"><defs><style>.a{fill:#E6857B;mix-blend-mode:overlay;isolation:isolate;}.b{fill:#fff;}.c{fill:#e6857b;}</style></defs><g transform="matrix(0.891, -0.454, 0.454, 0.891, -15.049, 117.66)"><path class="a" d="M263.191,144.887c-8.233-13.374-26.222-19.753-45.638-17.744a65.571,65.571,0,0,0,10.294-10.55c17.63-22.739,16.471-51.063-2.644-64.484C208.46,40.356,184.3,44.5,166.716,60.99c2.289-24.063-9.161-45.837-28.636-52.017-11.24-3.566-23.428-1.132-33.444,6.68C95.615,22.69,88.853,33.524,85.6,46.156a65.593,65.593,0,0,0-2.05,14.631C73.3,44.092,57.305,33.648,41.734,35.234,20.389,37.412,9.147,61.214,16.143,89.417A71.146,71.146,0,0,0,34.459,122.49a48.659,48.659,0,0,0,16.674,11.05c-22.876,6.921-37.269,18.96-39.9,33.738-1.939,10.884,2.69,21.9,12.691,30.216,12.507,10.4,27.562,10.953,40.841,11.44,9.827.362,19.1.7,26.82,4.684l.622.307c7.709,3.655,13.63,10.842,19.9,18.449,8.288,10.059,17.654,21.427,32.857,25.321.347.088.7.173,1.053.255,12.657,2.9,24.169-.12,31.577-8.3,10.051-11.094,10.782-29.886,2.319-52.316a45.768,45.768,0,0,0,12.7,5.332c12.973,3.324,28.673,2.084,43.411-4.371C262.55,186.684,274.479,163.227,263.191,144.887Z" transform="translate(0.255 4.082)"/><path class="b" d="M263.19,144.888c-8.233-13.374-26.222-19.753-45.638-17.744a65.592,65.592,0,0,0,10.3-10.55c17.63-22.739,16.471-51.066-2.644-64.484-16.746-11.756-40.9-7.609-58.489,8.878,2.292-24.06-9.161-45.837-28.633-52.016-11.24-3.564-23.428-1.129-33.447,6.683-9.021,7.037-15.779,17.871-19.038,30.5a65.757,65.757,0,0,0-2.053,14.628C73.3,44.093,57.307,33.649,41.733,35.235,20.388,37.413,9.146,61.212,16.144,89.419a71.159,71.159,0,0,0,18.317,33.072,48.672,48.672,0,0,0,16.674,11.05c-22.876,6.921-37.272,18.957-39.9,33.738-1.936,10.884,2.69,21.9,12.694,30.217,12.5,10.4,27.562,10.953,40.841,11.437,9.824.362,19.1.707,26.817,4.687l.625.3c7.706,3.658,13.63,10.844,19.9,18.452,8.291,10.059,17.657,21.427,32.857,25.322.347.088.7.173,1.053.255,12.66,2.9,24.169-.123,31.577-8.3,10.054-11.094,10.786-29.886,2.319-52.319a45.843,45.843,0,0,0,12.7,5.335c12.976,3.322,28.673,2.084,43.414-4.371C262.552,186.686,274.481,163.228,263.19,144.888Z" transform="translate(6.969 0.399)"/><g transform="translate(17.41 9.994)"><path class="c" d="M116.863,9.718C92.1-1.851,76.725,15.157,45.765,22.239c-45.421,10.39-50.46,36.4-32.9,51s44,3.6,65.415,14.661l.2.1.2.1c21.768,10.325,29.2,38.1,51.425,43.195S169.788,116.53,150.309,74C137.03,45.018,141.08,22.4,116.863,9.718Z" transform="translate(6.76 108.277)"/><path class="c" d="M60.747,39.906c5.655,22.8-2.493,42.589-18.2,44.189S9.524,68.51,3.869,45.708,6.362,3.122,22.067,1.518,55.092,17.1,60.747,39.906Z" transform="translate(11.461 33.132)"/><path class="c" d="M42.267,3.016C65.61,4.682,85.4,18.847,86.478,34.655S69.5,61.927,46.156,60.261,3.018,44.431,1.944,28.623,18.924,1.35,42.267,3.016Z" transform="matrix(0.885, -0.465, 0.465, 0.885, 151.608, 148.571)"/><path class="c" d="M65.056,54.1C59.184,76.875,40.984,91.072,24.407,85.812S-.849,57.827,5.026,35.053,29.1-1.916,45.675,3.344,70.931,31.331,65.056,54.1Z" transform="translate(79.765 4.566)"/><path class="c" d="M42.5,1.08c23.474.6,42.814,15.192,43.2,32.6S67.368,64.718,43.895,64.121,1.081,48.929.7,31.521,19.029.484,42.5,1.08Z" transform="matrix(0.593, -0.806, 0.806, 0.593, 131.46, 98.55)"/></g></g></svg>