<svg xmlns="http://www.w3.org/2000/svg" width="32.846" height="40.709" viewBox="0 0 32.846 40.709"><defs><style>.a{fill:#fff;}</style></defs><g transform="translate(-842.131 -1557.251)"><g transform="matrix(0.602, 0.799, -0.799, 0.602, 653.967, -41.729)"><path class="a" d="M1406.369,798.589l11.871,1.524a2.4,2.4,0,0,0,2.393-2.393,2.453,2.453,0,0,0-2.393-2.393l-11.871-1.524a2.4,2.4,0,0,0-2.393,2.393,2.453,2.453,0,0,0,2.393,2.393"/><path class="a" d="M1407.2,813.072q6.186-.6,12.365-1.286a2.786,2.786,0,0,0,2.7-2.705,2.722,2.722,0,0,0-2.7-2.705q-6.179.681-12.365,1.286a2.78,2.78,0,0,0-2.705,2.705,2.724,2.724,0,0,0,2.705,2.705"/><path class="a" d="M1416.978,828.765a72.069,72.069,0,0,0,10.568-6.859c1.157-.9.94-2.885,0-3.827a2.778,2.778,0,0,0-3.826,0,64.236,64.236,0,0,1-9.474,6.015,2.706,2.706,0,1,0,2.732,4.671"/></g></g></svg>