<svg xmlns="http://www.w3.org/2000/svg" width="32.846" height="40.709" viewBox="0 0 32.846 40.709"><defs><style>.a{fill:#fff;}</style></defs><g transform="translate(-4.635 0)"><g transform="matrix(-0.602, 0.799, -0.799, -0.602, 42.866, 21.255)"><path class="a" d="M2.393,1.538,14.264.014a2.4,2.4,0,0,1,2.393,2.393A2.453,2.453,0,0,1,14.264,4.8L2.393,6.324A2.4,2.4,0,0,1,0,3.931,2.453,2.453,0,0,1,2.393,1.538" transform="translate(0 28.981)"/><path class="a" d="M2.705.01Q8.891.614,15.07,1.3A2.786,2.786,0,0,1,17.775,4,2.722,2.722,0,0,1,15.07,6.706Q8.892,6.025,2.705,5.42A2.78,2.78,0,0,1,0,2.715,2.724,2.724,0,0,1,2.705.01" transform="translate(0.515 16.026)"/><path class="a" d="M4.055.343A72.071,72.071,0,0,1,14.623,7.2c1.157.9.94,2.885,0,3.827a2.778,2.778,0,0,1-3.826,0A64.249,64.249,0,0,0,1.323,5.014a2.738,2.738,0,0,1-.97-3.7,2.754,2.754,0,0,1,3.7-.97" transform="translate(8.947 0)"/></g></g></svg>