<svg xmlns="http://www.w3.org/2000/svg" width="71.862" height="71.862" viewBox="0 0 71.862 71.862">
  <g id="Grupo_10722" data-name="Grupo 10722" transform="translate(35.909 0.193) rotate(45)">
    <path id="Caminho_2607" data-name="Caminho 2607" d="M39.489,0h.592a6.638,6.638,0,0,1,.652.511Q45.372,5.136,50,9.776a7.619,7.619,0,0,1,.547.687v.592c-.262.289-.513.588-.788.865Q48,13.688,46.235,15.446c-.122.121-.238.248-.375.391.712.551,1.369,1.07,2.039,1.574a1.085,1.085,0,0,1,.414,1.3c-.272.913-.511,1.835-.792,2.745a.907.907,0,0,0,.134.9c.535.728,1.026,1.488,1.534,2.236.489.719.492.941.019,1.647-.512.765-1.014,1.537-1.547,2.287a.833.833,0,0,0-.131.817c.291.924.544,1.859.829,2.785a1.114,1.114,0,0,1-.432,1.342c-.734.556-1.438,1.151-2.185,1.69a1.1,1.1,0,0,0-.5.986c-.005.921-.057,1.841-.075,2.762a1.121,1.121,0,0,1-.84,1.135c-.915.317-1.82.665-2.737.977a.781.781,0,0,0-.556.544c-.3.887-.657,1.753-.941,2.644a1.231,1.231,0,0,1-1.305.96c-.937.006-1.876.03-2.81.1a1.091,1.091,0,0,0-.683.351c-.625.741-1.217,1.511-1.8,2.286a1.138,1.138,0,0,1-1.385.437c-.909-.284-1.828-.533-2.737-.817a.835.835,0,0,0-.82.119c-.789.563-1.61,1.082-2.407,1.634a1.1,1.1,0,0,1-1.407,0c-.817-.58-1.646-1.146-2.489-1.689a.876.876,0,0,0-.62-.1c-.955.243-1.9.527-2.847.793a1.066,1.066,0,0,1-1.41-.459c-.5-.646-1-1.3-1.618-2.092a3.123,3.123,0,0,1-.328.513q-1.892,1.911-3.8,3.807c-.654.652-1.129.657-1.769.018Q5.165,45.378.474,40.683a1.037,1.037,0,0,1-.013-1.733C1.575,37.832,2.7,36.727,3.8,35.591a1.289,1.289,0,0,0,.326-.759c.048-.8.05-1.612.023-2.416a1.175,1.175,0,0,0-.272-.684c-.662-.753-1.352-1.483-2.044-2.209a1.084,1.084,0,0,1-.2-1.35c.433-.885.841-1.783,1.283-2.663a.727.727,0,0,0-.006-.73c-.422-.854-.817-1.721-1.219-2.584a1.075,1.075,0,0,1,.254-1.5C2.6,20,3.267,19.322,3.9,18.606a1.011,1.011,0,0,0,.213-.691c-.094-1-.237-1.99-.363-2.985a1.026,1.026,0,0,1,.6-1.127c.857-.453,1.7-.933,2.558-1.381a.838.838,0,0,0,.5-.661c.153-.923.336-1.842.508-2.762A1.109,1.109,0,0,1,8.992,7.91c.936-.175,1.878-.327,2.807-.534a1,1,0,0,0,.578-.43c.484-.82.938-1.659,1.372-2.507a1.153,1.153,0,0,1,1.321-.694c.927.134,1.86.224,2.785.368a.869.869,0,0,0,.833-.265c.69-.682,1.41-1.334,2.109-2.007a1.051,1.051,0,0,1,1.3-.214c.9.434,1.806.868,2.725,1.266a.929.929,0,0,0,.67,0c.915-.406,1.812-.853,2.714-1.289a1.056,1.056,0,0,1,1.308.208c.271.264.55.52.83.773a7.128,7.128,0,0,0,1.778,1.522,8.335,8.335,0,0,0,2.343.15,1.345,1.345,0,0,0,1.16-.463C36.9,2.512,38.2,1.263,39.489,0Zm.366,2.484-37.3,37.3,8.3,8.314a4.411,4.411,0,0,1,.308-.374Q18.576,40.3,25.993,32.89a3.564,3.564,0,0,1,.434-.4.974.974,0,0,1,1.262.11.993.993,0,0,1,.093,1.266,3.471,3.471,0,0,1-.367.4q-2.947,2.95-5.9,5.892a1.852,1.852,0,0,1-.477.251,15.358,15.358,0,0,0,15.7-3.962A15.628,15.628,0,0,0,40.511,21a3.846,3.846,0,0,1-.351.509q-2.945,2.952-5.9,5.894c-.631.629-1.21.729-1.664.288-.483-.47-.392-1.027.276-1.695q7.435-7.429,14.869-14.86c.134-.133.26-.274.376-.4ZM33.205,6.218c-.483-.026-.839-.073-1.192-.057A1.7,1.7,0,0,1,30.657,5.6C30.066,5,29.426,4.457,28.828,3.87a.436.436,0,0,0-.6-.084c-.777.392-1.571.748-2.347,1.143a1.426,1.426,0,0,1-1.4.013c-.729-.375-1.492-.686-2.221-1.062a.633.633,0,0,0-.884.127c-.6.627-1.26,1.2-1.889,1.806a1.24,1.24,0,0,1-1.123.351c-.877-.134-1.761-.217-2.639-.345a.537.537,0,0,0-.656.339c-.4.792-.844,1.559-1.26,2.343a1.247,1.247,0,0,1-.949.7c-.89.152-1.774.34-2.664.491a.517.517,0,0,0-.494.488c-.148.874-.344,1.74-.483,2.616a1.338,1.338,0,0,1-.787,1.049c-.788.407-1.568.83-2.332,1.28a.623.623,0,0,0-.258.484c.08.9.181,1.8.326,2.69a1.347,1.347,0,0,1-.4,1.248c-.619.636-1.213,1.3-1.839,1.926a.463.463,0,0,0-.094.635c.4.808.763,1.637,1.159,2.448a1.283,1.283,0,0,1-.011,1.223c-.39.778-.731,1.581-1.138,2.349a.572.572,0,0,0,.136.8c.592.593,1.138,1.232,1.726,1.829a1.457,1.457,0,0,1,.451,1.2c-.027.4-.006.8-.006,1.324.769-.772,1.441-1.465,2.137-2.133a.6.6,0,0,0,.158-.7A16.8,16.8,0,0,1,7.9,23.03,17.349,17.349,0,0,1,18.866,9a17.12,17.12,0,0,1,11.589-.582c.168.047.434.07.534-.024C31.717,7.716,32.414,7,33.205,6.218Zm-4.068,3.96a15.619,15.619,0,0,0-15.331,4.655C9.572,19.461,9.094,25.665,10.2,29.11ZM17.253,44.424c.413.537.8,1.005,1.147,1.506a.53.53,0,0,0,.7.215c.832-.256,1.676-.472,2.505-.734a1.363,1.363,0,0,1,1.3.208c.735.526,1.5,1.017,2.232,1.54a.449.449,0,0,0,.608,0c.753-.529,1.53-1.024,2.284-1.552a1.3,1.3,0,0,1,1.21-.188c.879.27,1.768.507,2.644.786a.436.436,0,0,0,.572-.187c.563-.749,1.119-1.508,1.741-2.206a1.6,1.6,0,0,1,.952-.486c.914-.092,1.839-.1,2.759-.1a.536.536,0,0,0,.594-.437c.284-.857.611-1.7.906-2.553a1.267,1.267,0,0,1,.835-.835c.869-.3,1.729-.626,2.6-.919a.487.487,0,0,0,.385-.532c.013-.937.015-1.878.107-2.809a1.6,1.6,0,0,1,.487-.95c.7-.622,1.457-1.178,2.206-1.742a.438.438,0,0,0,.187-.573c-.279-.876-.516-1.765-.787-2.644a1.3,1.3,0,0,1,.188-1.211c.527-.755,1.023-1.531,1.552-2.284a.449.449,0,0,0,0-.608c-.532-.751-1.034-1.524-1.566-2.275a1.283,1.283,0,0,1-.193-1.207q.4-1.294.742-2.605a.616.616,0,0,0-.072-.512c-.521-.446-1.078-.849-1.608-1.257a.612.612,0,0,0-.122.064c-.63.626-1.25,1.263-1.894,1.875a.57.57,0,0,0-.16.687,16.983,16.983,0,0,1-.657,12.74c-2.995,6.411-8.109,9.909-15.17,10.5a16.659,16.659,0,0,1-6.561-.839.65.65,0,0,0-.526.024C18.663,43,17.976,43.7,17.253,44.424Z" transform="translate(0 0)" stroke="#e5e5e5" stroke-width="0.3"/>
    <path id="Caminho_2608" data-name="Caminho 2608" d="M5.4,3.593c-.18.152-.319.283-.471.4a.987.987,0,0,1-1.267-.066.94.94,0,0,1-.106-1.3A14.387,14.387,0,0,1,4.951,1.235a.959.959,0,0,1,1.4.2,3.648,3.648,0,0,1,.877,3.949A3.722,3.722,0,0,1,3.694,7.536,3.806,3.806,0,0,1,2.807.057c.805-.215,1.452.2,1.445.919-.005.5-.283.8-.92,1A1.8,1.8,0,0,0,2.042,4.2,1.724,1.724,0,0,0,3.427,5.524a1.748,1.748,0,0,0,1.838-.681A1.212,1.212,0,0,0,5.4,3.593Z" transform="translate(20.181 22.979)" stroke="#e5e5e5" stroke-width="0.3"/>
    <path id="Caminho_2609" data-name="Caminho 2609" d="M7.612,3.812A3.806,3.806,0,1,1,3.833,0,3.8,3.8,0,0,1,7.612,3.812Zm-1.978.007A1.824,1.824,0,0,0,3.789,1.983,1.835,1.835,0,1,0,5.634,3.819Z" transform="translate(6.921 36.158)" stroke="#e5e5e5" stroke-width="0.3"/>
    <path id="Caminho_2610" data-name="Caminho 2610" d="M4.043,5.484c.494.473,1,.939,1.482,1.421a1.036,1.036,0,0,1,.162,1.523c-.43.453-1.016.412-1.555-.125C2.883,7.061,1.644,5.811.395,4.571A1.013,1.013,0,0,1,.108,3.327a.962.962,0,0,1,1.164-.51c1.132.19,2.26.4,3.479.621-.555-.57-1.059-1.07-1.54-1.591A1.7,1.7,0,0,1,2.793,1.2.883.883,0,0,1,3.243.151.93.93,0,0,1,4.425.288C5.07.9,5.7,1.528,6.332,2.149s1.274,1.238,1.9,1.866a1.077,1.077,0,0,1-.981,1.894c-.889-.16-1.778-.326-2.667-.485-.154-.028-.312-.036-.469-.053Z" transform="translate(27.532 14.449)" stroke="#e5e5e5" stroke-width="0.3"/>
    <path id="Caminho_2611" data-name="Caminho 2611" d="M5.476,3.244c.539.041,1.059.083,1.58.119.693.047,1.092.424,1.076,1.023s-.474.982-1.187.951c-.565-.025-1.129-.069-1.818-.113.258.271.432.437.587.619a1,1,0,0,1-.036,1.38.927.927,0,0,1-1.334.016Q2.284,5.223.266,3.163A.922.922,0,0,1,.308,1.829c.368-.4.751-.783,1.151-1.149A2.508,2.508,0,0,1,4.385.313a2.423,2.423,0,0,1,1.16,2.611C5.528,3.02,5.5,3.114,5.476,3.244ZM3.183,3.3a8.078,8.078,0,0,0,.388-1c.017-.07-.239-.306-.31-.283a7.423,7.423,0,0,0-.93.436Z" transform="translate(12.018 31.173)" stroke="#e5e5e5" stroke-width="0.3"/>
    <path id="Caminho_2612" data-name="Caminho 2612" d="M2.845,2.846c.489,1.1.922,2.066,1.355,3.036a3.548,3.548,0,0,1,.172.407.988.988,0,0,1-.544,1.228.944.944,0,0,1-1.255-.466Q1.309,4.3.1,1.53A1.019,1.019,0,0,1,.332.348,1.033,1.033,0,0,1,1.555.1q2.722,1.2,5.426,2.448a.972.972,0,0,1,.509,1.32.983.983,0,0,1-1.336.467C5.088,3.873,4.033,3.383,2.845,2.846Z" transform="translate(34.127 10.522)" stroke="#e5e5e5" stroke-width="0.3"/>
    <path id="Caminho_2613" data-name="Caminho 2613" d="M5.013,3.6c.261-.278.45-.508.668-.706a.987.987,0,0,1,1.378-.015A.972.972,0,0,1,7.1,4.25c-.466.507-.954,1-1.463,1.461A.907.907,0,0,1,4.3,5.686Q2.283,3.7.3,1.683A.957.957,0,0,1,.318.277a.966.966,0,0,1,1.41.061c.961.943,1.907,1.9,2.86,2.852C4.713,3.314,4.843,3.434,5.013,3.6Z" transform="translate(37.988 6.745)" stroke="#e5e5e5" stroke-width="0.3"/>
    <path id="Caminho_2614" data-name="Caminho 2614" d="M.916,0a4.376,4.376,0,0,1,.848.49Q3.717,2.4,5.633,4.35a.989.989,0,1,1-1.39,1.4c-1.308-1.292-2.6-2.6-3.9-3.9A.9.9,0,0,1,.111.733,3.683,3.683,0,0,1,.916,0Z" transform="translate(16.639 27.966)" stroke="#e5e5e5" stroke-width="0.3"/>
    <path id="Caminho_2615" data-name="Caminho 2615" d="M6.092,5.047a4.126,4.126,0,0,1-.694.811.84.84,0,0,1-1.085-.152c-.431-.4-.842-.829-1.26-1.247Q1.729,3.137.407,1.811A1,1,0,0,1,.295.3.992.992,0,0,1,1.81.424c1.257,1.251,2.515,2.5,3.755,3.767A4.9,4.9,0,0,1,6.092,5.047Z" transform="translate(24.973 19.763)" stroke="#e5e5e5" stroke-width="0.3"/>
    <path id="Caminho_2616" data-name="Caminho 2616" d="M.953,1.965A1,1,0,0,1,0,.928.969.969,0,0,1,1,0a.989.989,0,0,1,.962.977A1.012,1.012,0,0,1,.953,1.965Z" transform="translate(29.221 29.212)" stroke="#e5e5e5" stroke-width="0.3"/>
  </g>
</svg>
