<svg xmlns="http://www.w3.org/2000/svg" width="57.728" height="57.728" viewBox="0 0 57.728 57.728"><defs><style>.a{fill:#fff;}.b{fill:#8cb54e;}</style></defs><ellipse class="a" cx="23.993" cy="23.993" rx="23.993" ry="23.993" transform="translate(0 46.703) rotate(-76.717)"/><g transform="translate(15.894 15.895)"><path class="b" d="M197.517,170.947h-15.24a5.356,5.356,0,0,1-5.35-5.35V150.358a5.356,5.356,0,0,1,5.35-5.35h15.24a5.356,5.356,0,0,1,5.35,5.35V165.6A5.356,5.356,0,0,1,197.517,170.947ZM182.278,147.6a2.759,2.759,0,0,0-2.756,2.756V165.6a2.759,2.759,0,0,0,2.756,2.756h15.24a2.759,2.759,0,0,0,2.756-2.756V150.358a2.759,2.759,0,0,0-2.756-2.756Z" transform="translate(-176.928 -145.008)"/><g transform="translate(6.485 6.485)"><path class="b" d="M193.419,167.983A6.485,6.485,0,1,1,199.9,161.5,6.492,6.492,0,0,1,193.419,167.983Zm0-10.376a3.891,3.891,0,1,0,3.891,3.891A3.9,3.9,0,0,0,193.419,157.608Z" transform="translate(-186.934 -155.014)"/></g><ellipse class="b" cx="1.297" cy="1.297" rx="1.297" ry="1.297" transform="translate(18.157 5.188)"/></g></svg>