<svg xmlns="http://www.w3.org/2000/svg" width="70.396" height="47.929" viewBox="0 0 70.396 47.929">
  <g id="Grupo_10721" data-name="Grupo 10721" transform="translate(0.15 0.15)">
    <path id="Caminho_2603" data-name="Caminho 2603" d="M257.884,633.419c.306-.414.633-.816.909-1.249a1.459,1.459,0,0,0,.243-.722c.02-1.894.077-3.791,0-5.681a42.761,42.761,0,0,1,1.511-12.72c.272-1.035.457-2.093.727-3.128a5.025,5.025,0,0,1,4.995-3.884c3.925-.011,7.85,0,11.775,0h.827c.015-.27.04-.509.04-.749,0-1.46-.007-2.921,0-4.381a3.091,3.091,0,0,1,3.326-3.341q18.484-.008,36.967,0a3.2,3.2,0,0,1,2.986,1.706.856.856,0,0,0,.627.339c1.346.031,2.693,0,4.039.022a1.032,1.032,0,0,1,1.122,1.034,1.044,1.044,0,0,1-1.141,1.01c-.251.009-.5,0-.753,0h-3.529v3.685c.737,0,1.5,0,2.266,0a7.827,7.827,0,0,1,.821.012,1.026,1.026,0,0,1,.966,1.048,1.015,1.015,0,0,1-1.022.986c-.5.024-1,.007-1.506.007H322.55V611.1c.5,0,1.01-.009,1.523,0,.725.016,1.188.442,1.168,1.055a1.051,1.051,0,0,1-1.161.994c-.5.012-.995,0-1.532,0v3.692h1.6c.913,0,1.826-.011,2.738,0a1.023,1.023,0,1,1,0,2.042c-1.186.021-2.373.007-3.56.007h-.777v3.692c.963,0,1.934.009,2.905,0a1.029,1.029,0,1,1,.052,2.048c-.912.028-1.826-.006-2.738.021a.721.721,0,0,0-.538.262,3.227,3.227,0,0,1-3.216,1.775,3.692,3.692,0,0,0-.407.038v.829c0,2.328.006,4.655,0,6.983a3.147,3.147,0,0,1-2.471,3.4.965.965,0,0,0-.433.634,8.022,8.022,0,0,1-6.245,6.366,8.175,8.175,0,0,1-9.815-6.213c-.051-.242-.1-.483-.158-.736H280.914a8.341,8.341,0,0,1-3.574,5.757,7.968,7.968,0,0,1-4.773,1.416c-3.953-.086-6.568-2.421-8.036-7.2-1.31,0-2.652-.055-3.986.016a2.431,2.431,0,0,1-2.66-1.556Zm57.927,2.437c.677-.216.741-.726.741-1.273q0-3.661,0-7.323a5.619,5.619,0,0,0-.061-.566H284.631a4.99,4.99,0,0,1-.684-.015,1,1,0,0,1-.908-1.088.952.952,0,0,1,.982-.939c.227-.015.456-.005.684-.005h34.221c1.228,0,1.528-.3,1.528-1.536q0-10.985,0-21.97c0-1.229-.3-1.528-1.535-1.528H282.509c-1.247,0-1.544.289-1.544,1.518q0,17.007,0,34.015c0,.241.022.481.035.738H299.45c1.495-4.751,4.072-7.045,7.954-7.129a8.08,8.08,0,0,1,4.9,1.444A8.308,8.308,0,0,1,315.811,635.855Zm-36.948-27.771h-.549q-5.989,0-11.979,0a3.019,3.019,0,0,0-3.124,2.514c-.21.887-.416,1.775-.607,2.666-.633,2.961-1.5,5.882-1.49,8.951s-.007,6.115-.008,9.172a2.494,2.494,0,0,0,.079.422c1.514,0,2.994-.018,4.474.01a1.356,1.356,0,0,0,1.119-.482,8.167,8.167,0,0,1,11.361-.569c.219.19.432.388.724.651ZM266.6,636.974a6.152,6.152,0,1,0,6.1-6.166A6.173,6.173,0,0,0,266.6,636.974Zm34.905-.112a6.15,6.15,0,1,0,6.346-6.051A6.177,6.177,0,0,0,301.5,636.861Zm-36.443-2.947h-5.087v1.968h4.584Z" transform="translate(-257.884 -597.557)" stroke="#e5e5e5" stroke-width="0.3"/>
    <path id="Caminho_2604" data-name="Caminho 2604" d="M297.857,677.057h-.819q-4.752,0-9.5,0c-1.279,0-1.627-.449-1.344-1.705q.877-3.9,1.751-7.793c.23-1.026.475-1.219,1.547-1.219q4.513,0,9.026,0c1.066,0,1.395.316,1.4,1.378q.007,6.906,0,13.813a3,3,0,0,1-.011.341,1.052,1.052,0,0,1-1,1.016,1.012,1.012,0,0,1-1.024-1.053c-.026-1.321-.012-2.644-.013-3.966C297.857,677.625,297.857,677.381,297.857,677.057Zm-9.46-2.11h9.41v-6.53H289.86Z" transform="translate(-280.937 -653.757)" stroke="#e5e5e5" stroke-width="0.3"/>
    <path id="Caminho_2605" data-name="Caminho 2605" d="M316.744,794.717a4.083,4.083,0,0,1,3.766-4.12c.8-.042,1.294.3,1.345.925s-.366,1.023-1.179,1.124a2.045,2.045,0,1,0,2.206,1.939c-.006-.136-.041-.271-.052-.407a1.03,1.03,0,1,1,2.034-.3,4.1,4.1,0,1,1-8.12.839Z" transform="translate(-305.978 -755.284)" stroke="#e5e5e5" stroke-width="0.3"/>
    <path id="Caminho_2606" data-name="Caminho 2606" d="M513.648,794.317c-.069-.8.251-1.3.88-1.37s1.068.369,1.164,1.147a4.077,4.077,0,0,1-3.5,4.663,4.1,4.1,0,0,1-1.41-8.075,3.391,3.391,0,0,1,.608-.079c.747-.03,1.227.326,1.274.931s-.375,1.022-1.12,1.114a2.04,2.04,0,0,0-1.925,2.279,2.04,2.04,0,1,0,4.031-.611Z" transform="translate(-461.873 -755.292)" stroke="#e5e5e5" stroke-width="0.3"/>
  </g>
</svg>
