<svg xmlns="http://www.w3.org/2000/svg" width="165.959" height="146.65" viewBox="0 0 165.959 146.65"><defs><style>.a{fill:#fff;}</style></defs><g transform="translate(-759.999 -179.369)"><path class="a" d="M3110.867,252.694a73.324,73.324,0,0,0-146.479-4.988,5.033,5.033,0,0,0,0,9.977,73.338,73.338,0,0,0,73.156,68.336h.043a.839.839,0,1,0,0-1.678h-.051a71.659,71.659,0,0,1-71.47-66.714,5.035,5.035,0,0,0,0-9.866,71.648,71.648,0,1,1,139.566,27.287h0l-.025.076a.839.839,0,1,0,1.593.528l.028-.085v0A73.234,73.234,0,0,0,3110.867,252.694Zm-142.453,0a3.356,3.356,0,1,1-3.356-3.356A3.36,3.36,0,0,1,2968.414,252.694Zm99.4,65.885a.838.838,0,0,1-.422,1.109l-.155.069a.839.839,0,1,1-.68-1.534l.148-.066A.839.839,0,0,1,3067.814,318.579Zm13-7.719a.839.839,0,0,1-.184,1.172l-.137.1a.839.839,0,0,1-.983-1.36l.132-.1A.839.839,0,0,1,3080.81,310.86Zm-27.31,12.562a.839.839,0,0,1-.647.995l-.164.035a.847.847,0,0,1-.173.018.839.839,0,0,1-.171-1.66l.16-.034A.839.839,0,0,1,3053.5,323.422ZM3101,289.45l-.087.149a.839.839,0,1,1-1.446-.852l.081-.139a.839.839,0,1,1,1.452.842Zm-9.072,11.17a.838.838,0,0,1,.059,1.185l-.113.125a.839.839,0,1,1-1.242-1.128l.111-.122A.838.838,0,0,1,3091.931,300.621Zm-126.874-49.605a1.678,1.678,0,1,1-1.678,1.678A1.68,1.68,0,0,1,2965.057,251.016Z" transform="translate(-2200.024)"/><g transform="translate(904.37 246.637)"><circle class="a" cx="5.034" cy="5.034" r="5.034" transform="translate(0 9.8) rotate(-76.717)"/><circle cx="3.356" cy="3.356" r="3.356" transform="translate(2.206 3.281) rotate(-9.217)"/></g><circle class="a" cx="1.678" cy="1.678" r="1.678" transform="translate(908.748 251.016)"/><rect class="a" width="11.801" height="1.634" transform="translate(914.158 251.731)"/></g></svg>