<svg xmlns="http://www.w3.org/2000/svg" width="165.733" height="146.65" viewBox="0 0 165.733 146.65"><defs><style>.a{fill:#fff;}</style></defs><path class="a" d="M818.438,216.4l.084-.147a.839.839,0,1,1,1.456.835l-.083.144a.839.839,0,1,1-1.457-.832Zm-8.509,30.167q.041,0,.081,0a.839.839,0,0,0,.834-.76l.016-.167a.839.839,0,1,0-1.67-.161l-.016.169A.839.839,0,0,0,809.929,246.566Zm2.866-14.981a.837.837,0,0,0,1.053-.546l.051-.16a.839.839,0,1,0-1.6-.508l-.051.161A.839.839,0,0,0,812.8,231.585Zm15.281-26.309a.838.838,0,0,0,.626-.281l.11-.123a.839.839,0,0,0-1.249-1.121l-.114.127a.839.839,0,0,0,.626,1.4Zm-17.114,55.445a.839.839,0,1,0-1.667.189l.019.167a.839.839,0,1,0,1.667-.189Zm159.149-7.188h-10.5a5.045,5.045,0,0,1-4.294,4.15A73.344,73.344,0,0,1,812.642,276.06h0l-.027-.08a.839.839,0,1,1,1.591-.534l.026.079a71.659,71.659,0,0,0,139.409-17.9,5.035,5.035,0,0,1,0-9.866,71.652,71.652,0,0,0-113.7-52.952h0l-.066.048a.839.839,0,0,1-.994-1.352l.069-.05h0a73.33,73.33,0,0,1,116.373,54.251,5.045,5.045,0,0,1,4.294,4.15h10.5Zm-12.106-.839a3.356,3.356,0,1,0-3.356,3.356A3.36,3.36,0,0,0,958.006,252.694Zm-148.593,5.034a5.034,5.034,0,1,1,5.035-5.034A5.04,5.04,0,0,1,809.413,257.728Zm0-1.678a3.356,3.356,0,1,0-3.356-3.356A3.36,3.36,0,0,0,809.413,256.05Zm1.678-3.356a1.678,1.678,0,1,0-1.678,1.678A1.68,1.68,0,0,0,811.091,252.694Zm143.559-1.678a1.678,1.678,0,1,0,1.678,1.678A1.68,1.68,0,0,0,954.65,251.016Z" transform="translate(-804.378 -179.369)"/></svg>