<svg xmlns="http://www.w3.org/2000/svg" width="166.197" height="146.65" viewBox="0 0 166.197 146.65"><defs><style>.a{fill:#fff;}</style></defs><g transform="translate(-924.479 -179.369)"><path class="a" d="M3709.61,288.792a.839.839,0,1,1-1.449.846l-.084-.144a.839.839,0,0,1,1.45-.844Zm32.932,29.45-.15-.067a.839.839,0,0,0-.682,1.533l.154.069a.839.839,0,1,0,.678-1.535Zm-24.2-17.528a.839.839,0,1,0-1.244,1.126l.112.124a.839.839,0,0,0,1.244-1.127Zm11.247,10.085-.133-.1a.839.839,0,1,0-.986,1.358l.137.1a.839.839,0,0,0,.982-1.361Zm27.639,12.023-.163-.035a.839.839,0,0,0-.346,1.642l.164.034a.839.839,0,1,0,.346-1.642Zm102.426-69.289h-10.232a5.044,5.044,0,0,1-4.293,4.15,73.338,73.338,0,0,1-73.155,68.336h-.043a.839.839,0,1,1,0-1.678h.05a71.659,71.659,0,0,0,71.471-66.714,5.035,5.035,0,0,1,0-9.866,71.659,71.659,0,0,0-71.478-66.714c-39.505,0-72.1,32.141-72.1,71.647a71.615,71.615,0,0,0,3.554,22.352v0l.027.082a.839.839,0,1,1-1.594.524l-.026-.078v0h0a73.417,73.417,0,0,1,41.143-90.444,75.112,75.112,0,0,1,29-5.763,73.338,73.338,0,0,1,73.155,68.336,5.044,5.044,0,0,1,4.293,4.15h10.232Zm-11.839-.839a3.356,3.356,0,1,0-3.356,3.356A3.36,3.36,0,0,0,3847.812,252.694Zm-3.356-1.678a1.678,1.678,0,1,0,1.678,1.678A1.68,1.68,0,0,0,3844.456,251.016Z" transform="translate(-2768.974)"/><g transform="translate(924.479 246.637)"><circle class="a" cx="5.034" cy="5.034" r="5.034" transform="translate(0 9.8) rotate(-76.717)"/><circle cx="3.356" cy="3.356" r="3.356" transform="translate(2.206 3.281) rotate(-9.217)"/></g><circle class="a" cx="1.678" cy="1.678" r="1.678" transform="translate(928.858 251.016)"/></g></svg>