<svg xmlns="http://www.w3.org/2000/svg" width="155.344" height="146.65" viewBox="0 0 155.344 146.65"><defs><style>.a{fill:#fff;}.b,.d{fill:none;}.b{stroke:#fff;stroke-width:1.7px;}.c{stroke:none;}</style></defs><g transform="translate(-1089.838 -179.369)"><path class="a" d="M4412.943,216.4l.084-.147a.839.839,0,0,1,1.456.835l-.083.145a.839.839,0,1,1-1.457-.832Zm-8.509,30.167c.027,0,.054,0,.081,0a.839.839,0,0,0,.834-.76l.017-.167a.839.839,0,0,0-1.67-.162l-.017.169A.839.839,0,0,0,4404.434,246.566Zm2.865-14.981a.839.839,0,0,0,1.054-.546l.051-.16a.839.839,0,1,0-1.6-.508l-.051.161A.838.838,0,0,0,4407.3,231.585Zm15.282-26.31a.839.839,0,0,0,.627-.28l.11-.123a.839.839,0,0,0-1.249-1.121l-.113.127a.839.839,0,0,0,.625,1.4Zm-17.114,55.445a.839.839,0,1,0-1.667.19l.018.167a.84.84,0,0,0,.833.744.8.8,0,0,0,.1-.005.839.839,0,0,0,.739-.928Zm147.918-6.763.732-.425a5.043,5.043,0,0,1-4.294,4.15,73.343,73.343,0,0,1-142.676,18.377h0l-.027-.08a.839.839,0,1,1,1.59-.534l.027.079a71.658,71.658,0,0,0,139.408-17.9,5.035,5.035,0,0,1,0-9.865,71.652,71.652,0,0,0-113.7-52.952h0l-.066.048a.839.839,0,1,1-.993-1.352l.069-.05h0a73.33,73.33,0,0,1,116.372,54.251,5.043,5.043,0,0,1,4.294,4.15l-.364.839Zm-.875-1.264a3.356,3.356,0,1,0-3.356,3.356A3.36,3.36,0,0,0,4552.51,252.694Zm-148.593,5.034a5.034,5.034,0,1,1,5.034-5.034A5.04,5.04,0,0,1,4403.917,257.728Zm0-1.678a3.356,3.356,0,1,0-3.356-3.356A3.36,3.36,0,0,0,4403.917,256.05Zm1.678-3.356a1.678,1.678,0,1,0-1.678,1.678A1.68,1.68,0,0,0,4405.6,252.694Zm143.559-1.678a1.678,1.678,0,1,0,1.678,1.678A1.68,1.68,0,0,0,4549.154,251.016Z" transform="translate(-3309.044)"/><g class="b" transform="translate(1235.095 247.681)"><circle class="c" cx="5.043" cy="5.043" r="5.043"/><circle class="d" cx="5.043" cy="5.043" r="4.193"/></g></g></svg>