<svg xmlns="http://www.w3.org/2000/svg" width="165.468" height="146.649" viewBox="0 0 165.468 146.649"><defs><style>.a{fill:#fff;}</style></defs><path class="a" d="M1629.932,186.114a.839.839,0,0,1,1.108-.425l.156.069a.839.839,0,1,1-.687,1.531l-.152-.068A.839.839,0,0,1,1629.932,186.114Zm-44.175-3.411a.854.854,0,0,0,.179-.019l.163-.035a.839.839,0,1,0-.354-1.64l-.165.036a.839.839,0,0,0,.177,1.659Zm30.227-.13.163.034a.839.839,0,1,0,.348-1.642l-.167-.035a.839.839,0,1,0-.344,1.642Zm-15.034-1.522h.17a.839.839,0,0,0,0-1.678h-.171a.839.839,0,0,0,0,1.678Zm-29.7,6.465a.835.835,0,0,0,.347-.076l.152-.069a.839.839,0,1,0-.692-1.529l-.154.07a.839.839,0,0,0,.348,1.6Zm117.915,66.02h-10.5a5.044,5.044,0,0,1-4.293,4.149,73.325,73.325,0,0,1-146.311,0,5.033,5.033,0,0,1,0-9.977,73.12,73.12,0,0,1,29.591-54h0l.066-.049a.839.839,0,1,1,1,1.348l-.067.05h0a71.446,71.446,0,0,0-28.909,52.7,5.035,5.035,0,0,1,0,9.866,71.648,71.648,0,0,0,142.955,0,5.035,5.035,0,0,1,0-9.866,71.408,71.408,0,0,0-29.187-52.907l-.01-.006-.068-.049a.839.839,0,1,1,.988-1.357l.068.05,0,0h0a73.081,73.081,0,0,1,29.885,54.214,5.044,5.044,0,0,1,4.292,4.149h10.5Zm-160.434,2.517a3.356,3.356,0,1,0-3.356-3.356A3.36,3.36,0,0,0,1528.736,256.052Zm148.327-3.356a3.356,3.356,0,1,0-3.356,3.356A3.36,3.36,0,0,0,1677.062,252.7Zm-146.649,0a1.678,1.678,0,1,0-1.678,1.678A1.68,1.68,0,0,0,1530.414,252.7Zm143.292-1.678a1.678,1.678,0,1,0,1.678,1.678A1.68,1.68,0,0,0,1673.706,251.017Z" transform="translate(-1523.701 -179.371)"/></svg>