<svg xmlns="http://www.w3.org/2000/svg" width="161.005" height="146.65" viewBox="0 0 161.005 146.65"><defs><style>.a{fill:#3f9eec;}</style></defs><path class="a" d="M117.1,288.792a.839.839,0,1,1-1.449.846l-.084-.145a.839.839,0,1,1,1.45-.844Zm32.932,29.45-.15-.067a.839.839,0,0,0-.682,1.533l.155.069a.839.839,0,0,0,.678-1.535Zm-24.2-17.528a.839.839,0,0,0-1.245,1.126l.112.124a.839.839,0,0,0,1.243-1.127ZM137.079,310.8l-.133-.1a.839.839,0,1,0-.986,1.358l.137.1a.839.839,0,1,0,.982-1.361Zm27.181,12.023-.163-.034a.839.839,0,1,0-.346,1.642l.163.034a.839.839,0,1,0,.346-1.642Zm102.426-69.288H256.455a5.044,5.044,0,0,1-4.294,4.149,73.338,73.338,0,0,1-73.155,68.336h-.044a.839.839,0,1,1,0-1.678h.05a71.66,71.66,0,0,0,71.471-66.714,5.035,5.035,0,0,1,0-9.866,71.649,71.649,0,1,0-139.568,27.285l0,0,.027.082a.839.839,0,1,1-1.595.523l-.026-.078v0h0a73.334,73.334,0,1,1,142.839-27.87,5.044,5.044,0,0,1,4.294,4.149h10.232Zm-11.839-.839a3.356,3.356,0,1,0-3.356,3.356A3.36,3.36,0,0,0,254.848,252.694Zm-3.356-1.678a1.678,1.678,0,1,0,1.678,1.678A1.68,1.68,0,0,0,251.491,251.016Z" transform="translate(-105.682 -179.369)"/></svg>