<svg xmlns="http://www.w3.org/2000/svg" width="165.467" height="146.65" viewBox="0 0 165.467 146.65"><defs><style>.a{fill:#fff;}</style></defs><path class="a" d="M2372.875,205.03a.839.839,0,0,1,1.253-1.116l.112.126a.839.839,0,1,1-1.255,1.114Zm8.816,12.271a.839.839,0,0,0,1.459-.829l-.084-.147a.839.839,0,0,0-1.457.834Zm8.994,28.326a.839.839,0,0,0,.834.757c.028,0,.055,0,.083,0a.84.84,0,0,0,.753-.917l-.017-.167a.839.839,0,0,0-1.67.169Zm.857,14.04a.839.839,0,0,0-.923.745l-.018.163a.839.839,0,1,0,1.668.183l.018-.168A.839.839,0,0,0,2391.541,259.666Zm-3.859-28.676a.839.839,0,1,0,1.6-.507l-.051-.161a.839.839,0,1,0-1.6.512Zm1.387,44.574-.025.075h0a73.337,73.337,0,0,1-142.817-17.957,5.033,5.033,0,0,1,0-9.977A73.329,73.329,0,0,1,2362.88,193.66l.006,0,.067.05a.839.839,0,1,1-1,1.348l-.067-.049h0a71.651,71.651,0,0,0-113.981,52.748,5.035,5.035,0,0,1,0,9.866,71.659,71.659,0,0,0,139.543,17.493v0l.028-.084a.839.839,0,1,1,1.592.531ZM2246.9,256.05a3.356,3.356,0,1,0-3.357-3.356A3.36,3.36,0,0,0,2246.9,256.05Zm160.433-2.517h-10.5a5.034,5.034,0,1,1,0-1.678h10.5Zm-12.106-.839a3.357,3.357,0,1,0-3.357,3.356A3.36,3.36,0,0,0,2395.224,252.694Zm-146.649,0a1.678,1.678,0,1,0-1.678,1.678A1.68,1.68,0,0,0,2248.575,252.694Zm143.292-1.678a1.678,1.678,0,1,0,1.678,1.678A1.68,1.68,0,0,0,2391.867,251.016Z" transform="translate(-2241.862 -179.369)"/></svg>