<svg xmlns="http://www.w3.org/2000/svg" width="21.143" height="21.138" viewBox="0 0 21.143 21.138"><defs><style>.a{fill:#fff;}</style></defs><path class="a" d="M10.569,7.387a5.42,5.42,0,1,0,5.42,5.42A5.411,5.411,0,0,0,10.569,7.387Zm0,8.943a3.523,3.523,0,1,1,3.523-3.523A3.53,3.53,0,0,1,10.569,16.33Zm6.905-9.165A1.264,1.264,0,1,1,16.21,5.9,1.261,1.261,0,0,1,17.474,7.166Zm3.59,1.283a6.256,6.256,0,0,0-1.707-4.429,6.3,6.3,0,0,0-4.429-1.707c-1.745-.1-6.976-.1-8.721,0a6.288,6.288,0,0,0-4.429,1.7A6.276,6.276,0,0,0,.069,8.444c-.1,1.745-.1,6.976,0,8.721a6.256,6.256,0,0,0,1.707,4.429A6.3,6.3,0,0,0,6.206,23.3c1.745.1,6.976.1,8.721,0a6.256,6.256,0,0,0,4.429-1.707,6.3,6.3,0,0,0,1.707-4.429c.1-1.745.1-6.971,0-8.717ZM18.809,19.038A3.567,3.567,0,0,1,16.8,21.047c-1.391.552-4.693.425-6.231.425s-4.844.123-6.231-.425a3.567,3.567,0,0,1-2.009-2.009c-.552-1.391-.425-4.693-.425-6.231s-.123-4.844.425-6.231A3.567,3.567,0,0,1,4.338,4.567c1.391-.552,4.693-.425,6.231-.425s4.844-.123,6.231.425a3.567,3.567,0,0,1,2.009,2.009c.552,1.391.425,4.693.425,6.231S19.361,17.651,18.809,19.038Z" transform="translate(0.005 -2.238)"/></svg>